<svg width="114" height="68" viewBox="0 0 114 68" fill="none" xmlns="http://www.w3.org/2000/svg">
<rect width="114" height="67.0588" rx="5.36471" fill="#E44F39"/>
<path d="M15.3325 30.6866C10.5901 30.6866 8.2189 28.7768 8.2189 24.9571V23.6374C8.2189 22.9078 8.34765 22.3177 8.60516 21.8671C8.88413 21.395 9.25965 20.9229 9.73175 20.4508C10.0536 20.1074 10.2789 19.8392 10.4077 19.6461C10.5579 19.4315 10.633 19.1847 10.633 18.9057C10.633 18.498 10.5472 18.2191 10.3755 18.0688C10.2253 17.8972 9.95707 17.8113 9.57081 17.8113H8.12234V13.7556H11.3733C12.7038 13.7556 13.7124 14.0775 14.399 14.7213C15.0857 15.3436 15.4291 16.2663 15.4291 17.4895C15.4291 18.4766 15.3003 19.2491 15.0428 19.807C14.8068 20.3435 14.4527 20.8907 13.9806 21.4486C13.6587 21.8349 13.4119 22.1889 13.2403 22.5108C13.0901 22.8112 13.0149 23.1868 13.0149 23.6374V24.2168C13.0149 24.9249 13.2295 25.4399 13.6587 25.7618C14.0879 26.0837 14.7531 26.2447 15.6544 26.2447C16.4913 26.2447 17.2638 26.1374 17.9719 25.9228V22.4464C17.9719 21.6095 17.4462 21.116 16.3947 20.9658V17.4251C16.8883 17.4251 17.2423 17.3285 17.4569 17.1354C17.6715 16.9423 17.8432 16.5667 17.9719 16.0088C18.1651 15.1719 18.2938 14.2706 18.3582 13.305L23.3474 13.82C23.2401 14.8929 23.0362 15.8479 22.7358 16.6847C22.5212 17.2856 22.2422 17.7684 21.8989 18.1332C21.577 18.4766 21.0727 18.777 20.3861 19.0345V19.1632C21.2659 19.4637 21.8774 19.8928 22.2208 20.4508C22.5856 21.0087 22.768 21.8027 22.768 22.8327V25.1824C22.768 26.191 22.4783 27.1137 21.8989 27.9506C21.3195 28.7875 20.4612 29.4527 19.3238 29.9463C18.208 30.4399 16.8775 30.6866 15.3325 30.6866ZM32.5685 18.1654C31.796 17.8864 30.884 17.747 29.8325 17.747C28.6952 17.747 27.4828 17.9186 26.1953 18.262L25.3584 14.1419C26.1094 13.8844 26.9785 13.6805 27.9656 13.5303C28.9527 13.3801 29.9506 13.305 30.9591 13.305C32.9333 13.305 34.5106 13.6483 35.6908 14.335C36.871 15.0002 37.4612 15.9015 37.4612 17.0388V30.3647H32.5685V18.1654ZM47.2481 30.6866C44.6516 30.6866 42.4306 30.118 40.5852 28.9807L41.7761 25.2468C43.5787 26.1481 45.4563 26.5987 47.4091 26.5987C48.3962 26.5987 49.2116 26.5451 49.8554 26.4378C49.9841 26.1374 50.0485 25.8477 50.0485 25.5687C50.0485 25.2039 49.8769 24.9357 49.5335 24.764C49.2116 24.5923 48.5035 24.4207 47.4091 24.249C45.3705 23.9056 43.7504 23.3263 42.5487 22.5108C41.347 21.6739 40.7461 20.4508 40.7461 18.8414C40.7461 16.9315 41.347 15.5367 42.5487 14.6569C43.7718 13.7556 45.6709 13.305 48.246 13.305C50.5635 13.305 52.6021 13.7449 54.3617 14.6247L52.527 18.262C51.218 17.6826 49.7159 17.3929 48.0207 17.3929C47.0979 17.3929 46.3361 17.4787 45.7353 17.6504C45.6495 17.9079 45.6065 18.1761 45.6065 18.4551C45.6065 18.8199 45.7997 19.0881 46.1859 19.2598C46.5937 19.41 47.3769 19.5817 48.5357 19.7748C49.9949 20.0109 51.1751 20.3327 52.0764 20.7405C52.9777 21.1267 53.6643 21.6739 54.1364 22.3821C54.6085 23.0902 54.8446 24.0237 54.8446 25.1824C54.8446 26.8991 54.2115 28.2511 52.9455 29.2382C51.6794 30.2038 49.7803 30.6866 47.2481 30.6866ZM46.3041 6.64201C47.141 6.42743 48.1496 6.24503 49.3298 6.09482C50.4886 5.9446 51.6152 5.8695 52.7096 5.8695C53.804 5.8695 54.7804 5.93387 55.6387 6.06263C56.4971 6.19138 57.3769 6.39524 58.2781 6.6742L57.3125 10.1505C55.9177 9.63552 54.4156 9.37802 52.8061 9.37802C51.9907 9.37802 51.3148 9.42093 50.7783 9.50677V11.3415H46.3041V6.64201ZM68.4818 30.6866C67.2587 30.6866 66.2072 30.472 65.3274 30.0429C64.4476 29.6137 63.6214 28.9592 62.8489 28.0794H62.5914L62.4304 30.3647H58.1816V13.7556H62.9776V25.1503C63.557 25.5794 64.1042 25.8691 64.6192 26.0193C65.1342 26.1695 65.8102 26.2447 66.6471 26.2447C67.3767 26.2447 68.0312 26.1588 68.6106 25.9871V13.7556H73.4066V26.3734C73.4066 27.7897 72.9667 28.8626 72.0869 29.5922C71.2285 30.3218 70.0269 30.6866 68.4818 30.6866ZM14.6244 43.4316C15.2681 43.968 15.9655 44.4401 16.7166 44.8479C17.4891 45.2341 18.2509 45.6311 19.002 46.0388C19.753 46.4251 20.4612 46.865 21.1264 47.3585C21.7916 47.8521 22.3495 48.4529 22.8002 49.1611C23.2079 49.8263 23.4761 50.5452 23.6049 51.3177C23.7551 52.0687 23.7658 52.8198 23.6371 53.5709C23.5298 54.3219 23.283 55.0515 22.8967 55.7597C22.5319 56.4678 22.0491 57.0901 21.4483 57.6266C20.547 58.3562 19.5384 58.8712 18.4226 59.1716C17.3067 59.4506 16.1587 59.5579 14.9784 59.4935C14.1415 59.4506 13.3154 59.3004 12.4999 59.0429C11.706 58.7854 10.9656 58.4313 10.2789 57.9807C9.61373 57.5086 9.04507 56.9399 8.57297 56.2747C8.10088 55.588 7.76827 54.8047 7.57514 53.9249C7.53222 53.646 7.50003 53.3777 7.47857 53.1202C7.45711 52.8413 7.46784 52.573 7.51076 52.3155C7.61805 51.8863 7.81118 51.5001 8.09015 51.1567C8.36911 50.8134 8.68027 50.513 9.02361 50.2555C9.36695 49.998 9.69956 49.8048 10.0214 49.6761C10.3648 49.5259 10.6437 49.4293 10.8583 49.3864C11.0729 49.3649 11.2446 49.3864 11.3733 49.4508C11.5236 49.4937 11.6309 49.5688 11.6952 49.6761C11.7596 49.7619 11.8025 49.8585 11.824 49.9658C11.8454 50.0516 11.8562 50.116 11.8562 50.1589C11.8776 50.5881 11.9635 51.0387 12.1137 51.5108C12.2853 51.9615 12.4999 52.3906 12.7574 52.7983C13.0149 53.2061 13.3261 53.5709 13.6909 53.8927C14.0557 54.2146 14.4634 54.4399 14.9141 54.5687C15.3861 54.7189 15.8582 54.7296 16.3303 54.6009C16.9526 54.4292 17.4033 54.1503 17.6822 53.764C17.9612 53.3563 18.09 52.9593 18.0685 52.573C18.047 52.2082 17.9183 51.8434 17.6822 51.4786C17.4677 51.0924 17.1672 50.7276 16.781 50.3842C16.0728 49.7834 15.2896 49.2362 14.4312 48.7426C13.5729 48.2491 12.736 47.7341 11.9205 47.1976C11.1051 46.6611 10.3541 46.0603 9.66737 45.3951C9.00215 44.7298 8.49787 43.9144 8.15453 42.9487C7.74681 41.6612 7.71462 40.5239 8.05796 39.5368C8.42276 38.5497 9.01288 37.7235 9.82831 37.0583C10.6437 36.3931 11.5987 35.8995 12.6931 35.5776C13.8089 35.2343 14.9033 35.0948 15.9763 35.1592C16.899 35.2021 17.7895 35.3738 18.6479 35.6742C19.5277 35.9532 20.3217 36.3394 21.0298 36.833C21.7594 37.3051 22.371 37.8737 22.8646 38.539C23.3796 39.2042 23.7229 39.9338 23.8946 40.7278C23.9804 41.2213 23.9053 41.6827 23.6693 42.1119C23.4332 42.5196 23.1221 42.8844 22.7358 43.2063C22.371 43.5067 21.9633 43.7427 21.5126 43.9144C21.0835 44.0646 20.7187 44.1075 20.4182 44.0431C20.0105 43.8929 19.6994 43.5603 19.4848 43.0453C18.9483 41.7578 18.326 40.8672 17.6179 40.3737C16.9312 39.8587 16.2767 39.6119 15.6544 39.6334C15.0535 39.6548 14.5493 39.8909 14.1415 40.3415C13.7338 40.7707 13.5514 41.2964 13.5943 41.9187C13.6158 42.1548 13.7124 42.4123 13.884 42.6912C14.0772 42.9487 14.3239 43.1955 14.6244 43.4316ZM30.9292 43.3994C31.7876 42.9273 32.6566 42.6161 33.5365 42.4659C34.4163 42.2942 35.2639 42.2942 36.0793 42.4659C36.8948 42.6161 37.6458 42.938 38.3325 43.4316C39.0406 43.9037 39.6308 44.5367 40.1029 45.3307C40.5964 46.1032 40.9505 47.0474 41.1651 48.1632C41.4011 49.2791 41.4548 50.5452 41.326 51.9615L41.0363 58.0128C40.9934 58.2918 40.9076 58.5386 40.7788 58.7532C40.6715 58.9248 40.4998 59.0965 40.2638 59.2682C40.0492 59.4184 39.7595 59.4935 39.3947 59.4935C39.0085 59.515 38.6115 59.5257 38.2038 59.5257C37.796 59.5257 37.4205 59.472 37.0772 59.3647C36.7553 59.2575 36.4763 59.0751 36.2403 58.8175C36.0042 58.5386 35.8647 58.1416 35.8218 57.6266C35.8218 56.618 35.8647 55.6309 35.9506 54.6653C36.0579 53.6782 36.1437 52.6696 36.2081 51.6396C36.3154 50.5452 36.251 49.6654 36.015 49.0001C35.7789 48.3135 35.457 47.8199 35.0493 47.5195C34.663 47.2191 34.2231 47.0903 33.7296 47.1332C33.2575 47.1761 32.8069 47.38 32.3777 47.7448C31.9485 48.1096 31.5944 48.6246 31.3155 49.2898C31.0365 49.9336 30.9185 50.7061 30.9614 51.6074C31.0258 53.6889 31.1223 55.7167 31.2511 57.691C31.2511 58.0987 31.1116 58.4635 30.8326 58.7854C30.5751 59.0858 30.2318 59.2682 29.8026 59.3326C29.4164 59.3969 29.0194 59.4506 28.6117 59.4935C28.2254 59.5579 27.8606 59.5471 27.5173 59.4613C27.1739 59.3969 26.8628 59.2575 26.5838 59.0429C26.3263 58.8068 26.1546 58.442 26.0688 57.9485C25.8327 54.558 25.7254 51.1246 25.7469 47.6482C25.7684 44.1504 25.9078 40.6312 26.1654 37.0905C26.1868 36.8544 26.219 36.6291 26.2619 36.4145C26.3263 36.1999 26.4121 36.0068 26.5194 35.8351C26.6482 35.6635 26.8091 35.5347 27.0022 35.4489C27.2168 35.3416 27.4851 35.2879 27.807 35.2879C28.0859 35.3094 28.4185 35.3309 28.8048 35.3523C29.2125 35.3738 29.588 35.4167 29.9314 35.4811C30.2962 35.5455 30.5966 35.6527 30.8326 35.803C31.0902 35.9317 31.2189 36.1248 31.2189 36.3823C31.0687 38.7214 30.9721 41.0604 30.9292 43.3994ZM48.8196 44.8479C48.7767 47.1225 48.7552 49.3864 48.7552 51.6396C48.7552 53.8713 48.7874 56.1137 48.8518 58.3669C48.8089 58.5171 48.7337 58.6673 48.6265 58.8175C48.5192 58.9463 48.3582 59.0751 48.1436 59.2038C47.9505 59.3326 47.6715 59.4184 47.3067 59.4613C46.9419 59.5042 46.5557 59.5257 46.148 59.5257C45.7617 59.5471 45.3969 59.5364 45.0536 59.4935C44.7102 59.4506 44.4098 59.354 44.1523 59.2038C43.9162 59.0536 43.766 58.8283 43.7017 58.5279C43.6587 58.3776 43.6265 58.0665 43.6051 57.5944C43.6051 57.1223 43.6051 56.5536 43.6051 55.8884C43.6265 55.2232 43.648 54.4936 43.6695 53.6996C43.7124 52.8842 43.766 52.0687 43.8304 51.2533C43.8733 50.4379 43.9162 49.6439 43.9592 48.8714C44.0235 48.0989 44.0772 47.4122 44.1201 46.8113C44.1845 46.1032 44.2489 45.4487 44.3132 44.8479C44.2918 44.7191 44.324 44.6118 44.4098 44.526C44.4742 44.4401 44.5707 44.3758 44.6995 44.3328C44.8497 44.2685 45.075 44.2363 45.3754 44.2363C45.6759 44.2363 46.0192 44.2363 46.4055 44.2363C46.7917 44.2363 47.1565 44.2577 47.4999 44.3007C47.8647 44.3221 48.1758 44.3758 48.4333 44.4616C48.6908 44.5474 48.8196 44.6762 48.8196 44.8479ZM49.1415 40.599C49.1415 41.1569 48.9054 41.6398 48.4333 42.0475C47.9827 42.4337 47.4355 42.6269 46.7917 42.6269C46.148 42.6269 45.59 42.4337 45.1179 42.0475C44.6673 41.6398 44.442 41.1569 44.442 40.599C44.442 40.0196 44.6673 39.5261 45.1179 39.1183C45.59 38.7106 46.148 38.5068 46.7917 38.5068C47.4355 38.5068 47.9827 38.7106 48.4333 39.1183C48.9054 39.5261 49.1415 40.0196 49.1415 40.599ZM56.1346 43.0453C56.95 42.702 57.8513 42.4552 58.8384 42.305C59.847 42.1333 60.8448 42.1119 61.8319 42.2406C62.819 42.3479 63.7418 42.6269 64.6001 43.0775C65.4799 43.5281 66.1988 44.1934 66.7567 45.0732C67.2288 45.8242 67.5829 46.7577 67.8189 47.8735C68.055 48.9679 68.173 50.3199 68.173 51.9293L68.1086 57.1759C68.1086 57.3476 68.0979 57.5515 68.0764 57.7875C68.055 58.0236 67.9906 58.2596 67.8833 58.4957C67.776 58.7317 67.6151 58.9463 67.4005 59.1394C67.1859 59.3111 66.8962 59.4184 66.5314 59.4613C65.952 59.5471 65.3404 59.5686 64.6967 59.5257C64.0529 59.5042 63.5594 59.2682 63.216 58.8175C63.0229 58.56 62.8834 58.2274 62.7976 57.8197C62.7332 57.412 62.6903 56.9721 62.6688 56.5C62.6688 56.0279 62.6796 55.5665 62.701 55.1159C62.7439 54.6438 62.7868 54.2361 62.8298 53.8927C62.9156 53.1417 62.9907 52.4121 63.0551 51.7039C63.1195 50.9958 63.098 50.3091 62.9907 49.6439C62.862 48.9358 62.6152 48.3349 62.2504 47.8414C61.8856 47.3263 61.4564 46.9615 60.9628 46.747C60.4908 46.5109 59.9865 46.4251 59.45 46.4895C58.935 46.5324 58.4414 46.747 57.9693 47.1332C57.5187 47.498 57.1324 48.0452 56.8106 48.7748C56.4887 49.5044 56.2956 50.4164 56.2312 51.5108L56.3277 58.2703C56.2848 58.4635 56.2097 58.6459 56.1024 58.8175C55.9951 58.9678 55.8342 59.1072 55.6196 59.236C55.4265 59.3433 55.1475 59.4184 54.7827 59.4613C54.3964 59.5042 53.9995 59.5257 53.5917 59.5257C53.2055 59.5471 52.83 59.515 52.4652 59.4291C52.1218 59.3647 51.8321 59.2467 51.5961 59.0751C51.36 58.8819 51.2098 58.6137 51.1454 58.2703C51.1025 58.1416 51.0811 57.6802 51.0811 56.8863C51.0811 56.0708 51.0918 55.0944 51.1132 53.9571C51.1562 52.7983 51.1991 51.5645 51.242 50.2555C51.2849 48.9465 51.3278 47.7233 51.3708 46.586C51.4137 45.4272 51.4566 44.4509 51.4995 43.6569C51.5424 42.8415 51.5639 42.3586 51.5639 42.2084C51.5424 42.0797 51.5746 41.9616 51.6604 41.8543C51.7248 41.7471 51.8321 41.6612 51.9823 41.5968C52.1325 41.511 52.3579 41.4574 52.6583 41.4359C52.9372 41.4144 53.2699 41.4037 53.6561 41.4037C54.0638 41.3823 54.4501 41.3823 54.8149 41.4037C55.1797 41.4252 55.4908 41.4788 55.7484 41.5647C56.0059 41.6505 56.1346 41.79 56.1346 41.9831V43.0453ZM76.078 42.2084C77.387 41.8222 78.6316 41.7363 79.8118 41.9509C81.0135 42.144 82.0435 42.5839 82.9019 43.2706C83.7817 43.9359 84.4577 44.8371 84.9298 45.9744C85.4018 47.0903 85.5628 48.3671 85.4126 49.8048C85.3697 50.0838 85.2946 50.3199 85.1873 50.513C85.08 50.7061 84.9083 50.8241 84.6722 50.8671C84.565 50.91 84.3396 50.9422 83.9963 50.9636C83.653 50.9851 83.2345 50.9958 82.741 50.9958C82.2689 50.9958 81.7431 50.9958 81.1637 50.9958C80.5843 50.9743 80.005 50.9529 79.4256 50.9314C78.6316 50.8885 77.8913 50.8563 77.2046 50.8349C76.5179 50.8134 75.96 50.7812 75.5308 50.7383C75.5093 51.2533 75.5415 51.7576 75.6274 52.2511C75.7346 52.7447 75.9063 53.1953 76.1424 53.6031C76.3784 53.9893 76.6896 54.3112 77.0758 54.5687C77.4621 54.8262 77.9449 54.9764 78.5243 55.0193C78.9749 55.0623 79.4256 54.9764 79.8762 54.7618C80.3268 54.5472 80.7346 54.1824 81.0994 53.6674C81.3783 53.2383 81.7324 52.9807 82.1616 52.8949C82.5907 52.8091 83.0092 52.852 83.4169 53.0237C83.8246 53.1739 84.168 53.4314 84.4469 53.7962C84.7259 54.161 84.8654 54.5794 84.8654 55.0515C84.8654 55.6309 84.7044 56.1674 84.3826 56.6609C84.0821 57.133 83.6959 57.5622 83.2238 57.9485C82.7517 58.3133 82.2259 58.6244 81.6466 58.8819C81.0886 59.1394 80.5522 59.3111 80.0371 59.3969C79.3934 59.5257 78.7389 59.5686 78.0737 59.5257C77.4084 59.5042 76.7647 59.4077 76.1424 59.236C74.769 58.8068 73.6317 58.0558 72.7304 56.9828C71.8291 55.8884 71.1961 54.676 70.8313 53.3455C70.488 52.1009 70.3914 50.7812 70.5416 49.3864C70.6918 47.9916 71.121 46.7148 71.8291 45.556C72.3227 44.8049 72.9128 44.1397 73.5995 43.5603C74.2862 42.9595 75.1123 42.5088 76.078 42.2084ZM76.1746 47.5839C77.6981 47.5839 79.2324 47.5517 80.7775 47.4873C80.6702 46.7791 80.4127 46.2749 80.005 45.9744C79.6187 45.6526 79.1788 45.5131 78.6852 45.556C78.2131 45.5989 77.741 45.8028 77.269 46.1676C76.7969 46.5109 76.4321 46.983 76.1746 47.5839Z" fill="white"/>
<circle cx="100.589" cy="14.0823" r="4.69412" fill="#FBAF35"/>
</svg>
