<svg id="Layer_1" data-name="Layer 1" xmlns="http://www.w3.org/2000/svg" xmlns:xlink="http://www.w3.org/1999/xlink" viewBox="0 0 1162 318"><defs><style>.cls-1{fill:url(#linear-gradient);}.cls-2{fill:#e44f39;}.cls-3{fill:#e59007;}.cls-4{fill:#151515;}.cls-15,.cls-16,.cls-5{fill:#fff;}.cls-6{fill:#ffdd63;}.cls-7{fill:#ffc594;}.cls-8{fill:#2e2e2e;}.cls-9{fill:#2d251c;}.cls-10{fill:#96cb5f;}.cls-11{fill:#79aa40;}.cls-12{fill:#f88e1f;}.cls-13{mask:url(#mask);}.cls-14{fill:#fdb171;}.cls-15{font-size:36px;font-family:Anakotmai-Bold, Anakotmai;font-weight:700;}.cls-16{font-size:12px;font-family:Anakotmai-Light, Anakotmai;font-weight:300;}</style><linearGradient id="linear-gradient" x1="382.33" y1="261.35" x2="382.33" y2="142.55" gradientTransform="matrix(-1, 0, 0, 1, 1385.57, 0)" gradientUnits="userSpaceOnUse"><stop offset="0.07"/><stop offset="0.12" stop-color="#333"/><stop offset="0.19" stop-color="#686868"/><stop offset="0.25" stop-color="#969696"/><stop offset="0.32" stop-color="#bcbcbc"/><stop offset="0.39" stop-color="#d9d9d9"/><stop offset="0.45" stop-color="#eee"/><stop offset="0.51" stop-color="#fbfbfb"/><stop offset="0.58" stop-color="#fff"/></linearGradient><mask id="mask" x="943.12" y="142.22" width="120.24" height="119.13" maskUnits="userSpaceOnUse"><rect class="cls-1" x="943.12" y="142.55" width="120.24" height="118.8"/></mask></defs><rect class="cls-2" x="-10.16" y="-12.31" width="1184.39" height="339.9"/><path class="cls-3" d="M714.92,146c3.64,19.41-.95,40.11-12.72,57.47a96.48,96.48,0,0,1-22.4,23.15,109.46,109.46,0,0,1-30.22,15.62,116.77,116.77,0,0,1-34.78,6.15,99.33,99.33,0,0,1-35.25-5.81c-22.32-8-40.31-24.44-48.38-44.15A66.9,66.9,0,0,1,527,183.21c-.18-1.27-.36-2.63-.46-3.86-.11-1.39-.19-2.68-.19-4a52.28,52.28,0,0,1,.5-7.91,56.31,56.31,0,0,1,13.47-29.09c14.63-16.9,39.67-26.89,64.17-23.74C616.6,116.28,628,121.4,636.32,129s13.74,17.45,15,27.67a34.46,34.46,0,0,1-9.83,28.76,43,43,0,0,1-13.62,9.36,48.26,48.26,0,0,1-16.56,3.81c11.3-1.46,21.5-7,27.87-14.71s9-17.49,7-26.61a41.47,41.47,0,0,0-14.8-24.09,53.47,53.47,0,0,0-28.13-11.58,58.7,58.7,0,0,0-15.71.5,69.5,69.5,0,0,0-15.14,4.1,60.34,60.34,0,0,0-24.12,17.22,49.08,49.08,0,0,0-11.29,25c-1.2,8.94.52,18.26,4,26.92a65.57,65.57,0,0,0,16.42,23.42,80.2,80.2,0,0,0,26,15.88,88.39,88.39,0,0,0,31.24,5.75,106.57,106.57,0,0,0,16.17-1.29,112.92,112.92,0,0,0,15.83-3.54c20.64-6.24,38.92-18.49,51.11-34.5A81,81,0,0,0,714.92,146Z"/><path class="cls-3" d="M835.71,167.92a93,93,0,0,1-54.24-3.27c-17.17-6.43-31.94-18-40.79-32.61a63.77,63.77,0,0,1-8.88-23.43A52.41,52.41,0,0,1,734,83.71c5.48-16.17,19.23-30.09,36.93-37.44A77.55,77.55,0,0,1,784.79,42c1.16-.24,2.43-.48,3.56-.66,1.3-.21,2.5-.37,3.75-.49a66.3,66.3,0,0,1,7.46-.35A64.38,64.38,0,0,1,828,47.34c17.1,8.71,28.65,25.18,27.78,42.5A36.51,36.51,0,0,1,845,113.19a46.8,46.8,0,0,1-24.58,12.73,40.38,40.38,0,0,1-27.62-4.43,32.66,32.66,0,0,1-9.78-8.61,26.92,26.92,0,0,1-4.83-11c2.45,7.57,8.49,14,16.14,17.52a36.69,36.69,0,0,0,24.82,2.26,39.82,39.82,0,0,0,20.47-12.15,30.66,30.66,0,0,0,7.92-19.85,29.5,29.5,0,0,0-1.86-10.44,38.9,38.9,0,0,0-5-9.77A45.54,45.54,0,0,0,823,54.78a54.33,54.33,0,0,0-23.53-5.38,62.88,62.88,0,0,0-24,5c-15.15,6.12-27,18-32,31.78a45.37,45.37,0,0,0-2.6,21.47,61.53,61.53,0,0,0,7,21.2c7.4,13.41,20,24.8,35.7,31.78C799.26,167.79,817.74,170.32,835.71,167.92Z"/><path class="cls-3" d="M784.43,175a74.47,74.47,0,0,0,12.73,51.82c10.38,15.34,26.6,27.44,45.31,34.09a103,103,0,0,0,14.44,3.95,97.9,97.9,0,0,0,14.86,1.89,82.29,82.29,0,0,0,29.18-4c18.56-5.94,34-18.68,41.43-34.43,3.76-7.83,5.9-16.36,5.33-24.64a44.64,44.64,0,0,0-8.92-23.57,54.5,54.5,0,0,0-21.21-17,63.46,63.46,0,0,0-13.72-4.45,54,54,0,0,0-14.44-1.17A50,50,0,0,0,862.78,167a39.15,39.15,0,0,0-15.15,21.57,28.61,28.61,0,0,0,4.84,24.9c5.41,7.44,14.51,13,24.89,14.92a44.16,44.16,0,0,1-15.16-4.22,39.25,39.25,0,0,1-12.13-9.27,31.75,31.75,0,0,1-7.52-27.19c1.8-9.46,7.36-18.46,15.61-25.13a56.85,56.85,0,0,1,30.54-12c23-1.88,45.79,8.54,58.43,24.93A51.63,51.63,0,0,1,958,203.18a48,48,0,0,1,0,7.39c-.08,1.24-.23,2.44-.42,3.73s-.41,2.4-.66,3.58a62.52,62.52,0,0,1-4.8,14c-8.7,18-26.45,32.51-47.72,39a93.28,93.28,0,0,1-33.18,3.84,107.54,107.54,0,0,1-32-7.29,99.67,99.67,0,0,1-27.15-15.89,87.57,87.57,0,0,1-19.4-22.54C782.79,212.26,779.81,192.83,784.43,175Z"/><path class="cls-3" d="M708.11,219a50.33,50.33,0,0,0-27.63,4,40.24,40.24,0,0,0-18.85,17.07A32.53,32.53,0,0,0,658,251.46a24.13,24.13,0,0,0,1.52,11.45c2.76,7.35,9.13,13.63,17.27,16.82a33.59,33.59,0,0,0,12.83,2.58,29.08,29.08,0,0,0,12.55-3,24.46,24.46,0,0,0,9.33-7.9A19.06,19.06,0,0,0,715,260.58c-.08-7.58-6.5-14.94-15.4-16.94A19.41,19.41,0,0,0,686.4,245a16.12,16.12,0,0,0-8.42,9.44A15.25,15.25,0,0,1,685.66,244a21.38,21.38,0,0,1,14.58-2.47,24.76,24.76,0,0,1,13.08,6.64,19.43,19.43,0,0,1,5.82,12.3c.55,9.15-5.47,17.9-14.45,22.59a34,34,0,0,1-15,3.72,39.61,39.61,0,0,1-15.16-2.9c-9.41-3.8-16.76-11.11-19.77-19.64A27.78,27.78,0,0,1,653.41,251,33.67,33.67,0,0,1,658,238.58c4.59-7.77,12.33-14,21.39-17.5A49.73,49.73,0,0,1,708.11,219Z"/><path class="cls-3" d="M898.33,153.5a64.25,64.25,0,0,0,35.54-2c11.08-3.87,20.49-10.91,26.46-19.65a42.55,42.55,0,0,0,6.29-14.06,31,31,0,0,0-.29-14.83c-2.49-9.71-9.8-18.43-19.78-23.39A42.49,42.49,0,0,0,930.41,75a38.05,38.05,0,0,0-16.58,2.56,32.73,32.73,0,0,0-13.07,9.24,25.08,25.08,0,0,0-6,13.59,20.73,20.73,0,0,0,4.24,14,26.54,26.54,0,0,0,13.3,9.21,25,25,0,0,0,17.08-.47,21.09,21.09,0,0,0,11.83-11.19c-1.49,5.12-5.63,9.71-11.21,12.27a27.17,27.17,0,0,1-18.54,1.49A29.82,29.82,0,0,1,896.14,116a23.47,23.47,0,0,1-5.49-15.86c.6-11.39,9.27-21.66,21.06-26.54a43.14,43.14,0,0,1,19.09-3.1,48.14,48.14,0,0,1,18.42,5.13c11.19,5.66,19.36,15.48,22,26.38a34.74,34.74,0,0,1-.06,16.53,43.83,43.83,0,0,1-7.31,15.11c-6.75,9.26-17.22,16.33-29,19.88A63.53,63.53,0,0,1,898.33,153.5Z"/><path class="cls-3" d="M960.44,153.83a32.15,32.15,0,0,1,2.94-24.37,41.47,41.47,0,0,1,20.5-17.79,48.17,48.17,0,0,1,14.35-3.59,42,42,0,0,1,15.06,1.43c9.7,2.73,17.92,9.13,22.08,17.21a26.1,26.1,0,0,1,3,12.93,23.34,23.34,0,0,1-4.59,12.66c-5.56,7.52-15.72,12.45-26.19,11.78a25.92,25.92,0,0,1-14-5.21,19.57,19.57,0,0,1-7.32-11.25,14.28,14.28,0,0,1,3.14-12.32,18.19,18.19,0,0,1,12.14-6.29,17.88,17.88,0,0,0-11,6.94,12.7,12.7,0,0,0-1.79,11.2c2.1,7.58,10.38,13.17,19,13.4a27.44,27.44,0,0,0,12.46-2.78,24,24,0,0,0,9.24-7.74,19.75,19.75,0,0,0,3.68-10.56,22.26,22.26,0,0,0-2.68-10.93c-3.47-7-10.52-12.49-18.86-15A36.51,36.51,0,0,0,998.63,112a47.33,47.33,0,0,0-13,2.85,40.89,40.89,0,0,0-19.94,15.61A33.1,33.1,0,0,0,960.44,153.83Z"/><path class="cls-3" d="M551.92,115.06c-.29,13.22-6.26,26.45-16.52,36.73S510.71,169.41,495,171.94a79.6,79.6,0,0,1-24,.39,64.66,64.66,0,0,1-22.6-7.62c-13.69-7.72-23.28-20.57-25.8-34.54a39.31,39.31,0,0,1,14.8-39c12.21-9.66,30.32-13.62,46.18-8.86a37.83,37.83,0,0,1,19.09,13,29,29,0,0,1,5.93,20,24.69,24.69,0,0,1-10.76,18,31.33,31.33,0,0,1-10.39,4.72,33.34,33.34,0,0,1-11.51.7A31,31,0,0,0,496.38,132a21.92,21.92,0,0,0,8.34-16.76,26,26,0,0,0-6.34-17.36,33.49,33.49,0,0,0-16.8-10.52,45.4,45.4,0,0,0-20.84-.2,43.15,43.15,0,0,0-18.24,8.74,33.34,33.34,0,0,0-12.11,33.25c2.05,12.13,10.34,23.34,22.16,30.26a56.59,56.59,0,0,0,19.66,7.1,78.17,78.17,0,0,0,21.72.25,72.78,72.78,0,0,0,38.62-17.19A57.84,57.84,0,0,0,551.92,115.06Z"/><path class="cls-4" d="M796.13,216.92a33.1,33.1,0,0,0,11.07-.36,28.65,28.65,0,0,0,5.33-1.62l.66-.27.71-.34.21-.12.89-.5a17.37,17.37,0,0,0,2.86-2.12,35.64,35.64,0,0,0,5.33-6.85,21,21,0,0,1,3.66-4.33,17.27,17.27,0,0,1,2.26-1.61c1.1-.64,2-1.12,3.11-1.69,2.15-1.12,4.46-2.21,6.78-3.28,4.69-2.19,9.57-4.34,14.41-6.85s9.73-5.27,14-9.5A61.71,61.71,0,0,0,877,164.77a16.91,16.91,0,0,0,1.62-4.2,14.08,14.08,0,0,0,.14-4.66c-.32-2.69-1-5-1.28-7-.25-1.47-.1-4.2-.24-6.52s-.25-4.75-.48-7.12c-.92-9.48-3.12-18.51-2.47-27.39a23.25,23.25,0,0,1,4.43-12.31,35.2,35.2,0,0,1,10.92-9.42c8.75-5.12,19.1-8,29.14-11.31a74.6,74.6,0,0,0,14.53-6.18c4.47-2.62,8.09-6.61,8.94-11.24-1.08,4.6-4.81,8.37-9.29,10.78a74.33,74.33,0,0,1-14.62,5.61c-10.13,3-20.68,5.47-30.09,10.5a45.87,45.87,0,0,0-12.41,9.54,27,27,0,0,0-6.34,13.57c-1.58,9.63-.28,19.1-.42,28.1,0,2.27-.1,4.52-.26,6.78s-.63,4.21-.38,7.36c.24,2.66.75,4.89.84,6.81a7.44,7.44,0,0,1-.16,2.27,10.47,10.47,0,0,1-1.07,2.34,55.7,55.7,0,0,1-8.53,10.23c-3,2.66-7.29,4.94-11.79,7s-9.33,3.95-14.26,5.95c-2.46,1-5,2-7.49,3.18-1.21.54-2.66,1.25-3.83,1.86a34.24,34.24,0,0,0-4.17,2.57c-5.37,3.85-8.39,9.71-10.32,11-.3.24-.3.15-.19.14l-.84.41-.22.11c-.38.18.47-.23.36-.19h0l-.06,0-.27.09a13.81,13.81,0,0,1-2.3.57,16.8,16.8,0,0,1-5,0Z"/><path class="cls-4" d="M859.54,179.78a73.83,73.83,0,0,0-2-21.82c-1.82-7.1-4.9-14.32-10.84-20a46.68,46.68,0,0,0-4.72-3.68,40.94,40.94,0,0,1-4.07-3.49,39.45,39.45,0,0,1-6.57-8.35c-3.42-6-5.86-13-4.59-19.88-2.12,6.8-.55,14.13,2.25,20.77a41.83,41.83,0,0,0,9.95,13.76,44.18,44.18,0,0,1,3.84,3.68c4.4,5.17,6.37,11.71,7.22,18.25a67.83,67.83,0,0,1-.53,19.78Z"/><path class="cls-4" d="M873.38,149.38a48.39,48.39,0,0,0,18.55-8.89,28.11,28.11,0,0,0,10.29-15.69c1-5.76,2.79-11.31,6.82-15.91s10.55-7.76,17.34-6.61c-6.69-1.53-13.89,1.43-18.32,5.92s-6.91,10.48-8.32,16.1A26,26,0,0,1,889.41,138a44.73,44.73,0,0,1-17.12,7.09Z"/><path class="cls-4" d="M853,179.66a97.36,97.36,0,0,0-10.85-9.53,81.05,81.05,0,0,0-12.44-7.82,52.28,52.28,0,0,0-14.31-4.76l-14.68-3.18L815,158.6a48.69,48.69,0,0,1,13.32,5.56,84.72,84.72,0,0,1,20.58,18.12Z"/><path class="cls-4" d="M873.6,108.62A26.84,26.84,0,0,0,876,92.91c-.72-5.29-3.8-10.25-7.53-14.11a16,16,0,0,1-2.65-14.09,34.88,34.88,0,0,1,7.25-13.66,36.24,36.24,0,0,0-8.19,13.46,17,17,0,0,0,2,15.22c3.53,4.1,5.86,8.56,6.28,13.46a24.88,24.88,0,0,1-3,14Z"/><path class="cls-4" d="M837.36,192.85a34.43,34.43,0,0,0,20,7.51,36.05,36.05,0,0,0,20-5.44A58.42,58.42,0,0,1,895,188.36a53,53,0,0,1,19.49-.35,54,54,0,0,0-19.82-1.26,63.1,63.1,0,0,0-19.26,5.33,31.43,31.43,0,0,1-17.54,3.38,26.72,26.72,0,0,1-14.93-7Z"/><path class="cls-5" d="M947.61,38.41c-4.51,3.78-9.24,13.89-4.85,17.77s16.24,0,20.74-3.74a8.87,8.87,0,0,0,.2-13.86A12.72,12.72,0,0,0,947.61,38.41Z"/><path class="cls-5" d="M964.23,56.24C958.67,53.72,946,53,943.11,57.75s5,13.32,10.55,15.83,12.43.68,15.36-4.1S969.8,58.76,964.23,56.24Z"/><path class="cls-5" d="M949.55,75.45c1.06-5.32-2-15.91-8.2-16.82s-13.18,8.19-14.24,13.52,3.1,10.4,9.3,11.31S948.49,80.79,949.55,75.45Z"/><path class="cls-5" d="M923.81,69.24c6.22-.79,17-6.55,16.06-11.92s-13.13-8.24-19.34-7.47S910,55.6,910.91,61,917.59,70,923.81,69.24Z"/><path class="cls-5" d="M922.8,46.36c2.79,4.85,12.49,11.86,18.12,9.47s5.07-13.29,2.29-18.14-9.6-6.84-15.24-4.45S920,41.51,922.8,46.36Z"/><polygon class="cls-6" points="939.73 56.9 941.83 58.75 949.31 52.48 947.21 50.63 939.73 56.9"/><path class="cls-6" d="M947.84,48.13a2.57,2.57,0,0,0-.26,4,3.67,3.67,0,0,0,4.64-.12,2.55,2.55,0,0,0,.25-4A3.65,3.65,0,0,0,947.84,48.13Z"/><polygon class="cls-6" points="941.1 55.5 939.69 57.79 948.95 61.97 950.34 59.68 941.1 55.5"/><path class="cls-6" d="M953.31,59.43a3.58,3.58,0,0,0-4.48,1c-.81,1.32-.11,3,1.55,3.75a3.6,3.6,0,0,0,4.49-1C955.67,61.87,955,60.18,953.31,59.43Z"/><polygon class="cls-6" points="943.08 56.19 940.11 55.75 938.35 64.61 941.31 65.04 943.08 56.19"/><path class="cls-6" d="M942.49,67.39a2.84,2.84,0,0,0-2.5-3.34,3.21,3.21,0,0,0-3.66,2.43,2.85,2.85,0,0,0,2.51,3.35A3.2,3.2,0,0,0,942.49,67.39Z"/><polygon class="cls-6" points="942.92 58.02 942.5 55.46 932.16 56.75 932.6 59.31 942.92 58.02"/><path class="cls-6" d="M930.37,61c1.86-.24,3.17-1.62,2.92-3.09s-2-2.49-3.81-2.25-3.19,1.62-2.94,3.09S928.51,61.25,930.37,61Z"/><polygon class="cls-6" points="940.86 58.47 943.55 57.32 938.94 49.26 936.24 50.41 940.86 58.47"/><path class="cls-6" d="M933.67,49.1A3.49,3.49,0,0,0,938,50.54a2.63,2.63,0,0,0,1.31-3.82A3.51,3.51,0,0,0,935,45.27,2.64,2.64,0,0,0,933.67,49.1Z"/><polygon class="cls-6" points="942.38 55.66 942.65 57.46 949.9 56.65 949.64 54.86 942.38 55.66"/><path class="cls-6" d="M951.22,53.69a2.09,2.09,0,0,0-2.1,2.14,2.31,2.31,0,0,0,2.66,1.61,2.09,2.09,0,0,0,2.08-2.14A2.27,2.27,0,0,0,951.22,53.69Z"/><polygon class="cls-6" points="942.53 57.2 940.62 57.97 943.75 63.66 945.65 62.89 942.53 57.2"/><path class="cls-6" d="M947.44,63.82a2.44,2.44,0,0,0-3-1,1.84,1.84,0,0,0-1,2.65,2.46,2.46,0,0,0,3,1.06A1.86,1.86,0,0,0,947.44,63.82Z"/><polygon class="cls-6" points="941.06 57.86 939.61 56.54 934.29 60.85 935.74 62.17 941.06 57.86"/><path class="cls-6" d="M935.25,63.92a1.79,1.79,0,0,0,.24-2.78,2.59,2.59,0,0,0-3.26,0A1.79,1.79,0,0,0,932,64,2.56,2.56,0,0,0,935.25,63.92Z"/><polygon class="cls-6" points="939.74 56.78 940.76 55.19 934.35 52.18 933.33 53.76 939.74 56.78"/><path class="cls-6" d="M931.26,53.91a2.51,2.51,0,0,0,3.14-.68,1.85,1.85,0,0,0-1-2.63,2.48,2.48,0,0,0-3.14.67A1.86,1.86,0,0,0,931.26,53.91Z"/><polygon class="cls-6" points="940.61 55.37 942.68 55.7 944.02 49.52 941.96 49.18 940.61 55.37"/><path class="cls-6" d="M941.16,47.53a2,2,0,0,0,1.72,2.37,2.3,2.3,0,0,0,2.6-1.67,2,2,0,0,0-1.72-2.37A2.27,2.27,0,0,0,941.16,47.53Z"/><path class="cls-6" d="M940.77,102c-4.32-1.94-14.11-2.51-16.37,1.21s3.88,10.32,8.2,12.26,9.65.5,11.91-3.22S945.1,103.91,940.77,102Z"/><path class="cls-6" d="M929.53,116.82c.81-4.14-1.59-12.34-6.39-13s-10.2,6.37-11,10.5,2.43,8.06,7.23,8.76S928.72,121,929.53,116.82Z"/><path class="cls-6" d="M909.54,112.13c4.81-.61,13.13-5.12,12.42-9.25s-10.18-6.39-15-5.78-8.15,4.48-7.43,8.63S904.72,112.75,909.54,112.13Z"/><path class="cls-6" d="M908.65,94.3c2.18,3.76,9.71,9.18,14.07,7.31s3.9-10.3,1.73-14.06-7.46-5.29-11.82-3.42S906.48,90.55,908.65,94.3Z"/><path class="cls-6" d="M928,88.16c-3.48,2.93-7.14,10.78-3.73,13.77s12.61,0,16.08-2.93a6.87,6.87,0,0,0,.13-10.74A9.84,9.84,0,0,0,928,88.16Z"/><polygon class="cls-5" points="923.04 101.42 921.96 103.21 929.14 106.43 930.22 104.66 923.04 101.42"/><path class="cls-5" d="M932.51,104.46a2.79,2.79,0,0,0-3.47.8,2.07,2.07,0,0,0,1.22,2.91,2.77,2.77,0,0,0,3.47-.8A2.06,2.06,0,0,0,932.51,104.46Z"/><polygon class="cls-5" points="924.58 101.96 922.28 101.63 920.93 108.5 923.24 108.83 924.58 101.96"/><path class="cls-5" d="M924.15,110.65a2.21,2.21,0,0,0-1.95-2.59,2.52,2.52,0,0,0-2.84,1.88,2.25,2.25,0,0,0,2,2.61A2.51,2.51,0,0,0,924.15,110.65Z"/><polygon class="cls-5" points="924.47 103.38 924.12 101.39 916.12 102.41 916.46 104.4 924.47 103.38"/><path class="cls-5" d="M914.74,105.72c1.44-.19,2.45-1.26,2.26-2.4a2.54,2.54,0,0,0-3-1.74c-1.45.18-2.46,1.26-2.26,2.4A2.55,2.55,0,0,0,914.74,105.72Z"/><polygon class="cls-5" points="922.86 103.73 924.95 102.83 921.37 96.59 919.26 97.49 922.86 103.73"/><path class="cls-5" d="M917.26,96.49a2.74,2.74,0,0,0,3.36,1.11,2.06,2.06,0,0,0,1-3,2.72,2.72,0,0,0-3.35-1.1A2.05,2.05,0,0,0,917.26,96.49Z"/><polygon class="cls-5" points="921.99 102.52 923.62 103.95 929.39 99.09 927.77 97.65 921.99 102.52"/><path class="cls-5" d="M928.26,95.71a2,2,0,0,0-.18,3.08,2.84,2.84,0,0,0,3.58-.09,2,2,0,0,0,.19-3.09A2.82,2.82,0,0,0,928.26,95.71Z"/><polygon class="cls-5" points="924.75 102.82 923.28 103.42 925.71 107.82 927.19 107.22 924.75 102.82"/><path class="cls-5" d="M928.56,107.94a1.88,1.88,0,0,0-2.32-.81,1.43,1.43,0,0,0-.74,2.07,1.9,1.9,0,0,0,2.33.8A1.42,1.42,0,0,0,928.56,107.94Z"/><polygon class="cls-5" points="923.47 103.28 922.34 102.25 918.23 105.61 919.36 106.63 923.47 103.28"/><path class="cls-5" d="M919,108a1.39,1.39,0,0,0,.18-2.17,2,2,0,0,0-2.51,0,1.38,1.38,0,0,0-.17,2.16A2,2,0,0,0,919,108Z"/><polygon class="cls-5" points="922.55 102.5 923.33 101.26 918.35 98.93 917.57 100.16 922.55 102.5"/><path class="cls-5" d="M916,100.28a2,2,0,0,0,2.44-.53,1.43,1.43,0,0,0-.81-2,2,2,0,0,0-2.45.53A1.45,1.45,0,0,0,916,100.28Z"/><polygon class="cls-5" points="923.15 101.41 924.76 101.67 925.79 96.87 924.18 96.62 923.15 101.41"/><path class="cls-5" d="M923.56,95.34a1.55,1.55,0,0,0,1.34,1.82,1.76,1.76,0,0,0,2-1.3A1.54,1.54,0,0,0,925.58,94,1.76,1.76,0,0,0,923.56,95.34Z"/><polygon class="cls-5" points="924.58 101.62 924.79 103.01 930.4 102.37 930.19 100.99 924.58 101.62"/><path class="cls-5" d="M931.41,100.07c-1,.12-1.74.87-1.61,1.66a1.77,1.77,0,0,0,2.06,1.25c1-.12,1.74-.86,1.61-1.66A1.8,1.8,0,0,0,931.41,100.07Z"/><path class="cls-6" d="M839.79,78c-6.57,2.82-16.06,12.63-12.77,18.3s18.08,5,24.66,2.22,9.25-9.72,6-15.39S846.37,75.17,839.79,78Z"/><path class="cls-6" d="M850.92,103c-5.16-4.51-18.92-9.25-24.17-4.8s0,16.36,5.18,20.87a14.9,14.9,0,0,0,18.83.15A10.39,10.39,0,0,0,850.92,103Z"/><path class="cls-6" d="M826.59,119.86c3.39-5.62,4.37-18.35-2.16-21.27s-18.07,5.08-21.47,10.69-.86,12.53,5.67,15.45S823.19,125.47,826.59,119.86Z"/><path class="cls-6" d="M800.49,105c7.26,1,21.62-2.1,22.83-8.34s-11.18-13.23-18.44-14.26-14.11,3.16-15.32,9.4S793.25,104,800.49,105Z"/><path class="cls-6" d="M808.86,79.22c1.09,6.26,9,17,16.26,16.12s11.16-13.25,10.07-19.5-7.87-10.58-15.13-9.64S807.77,73,808.86,79.22Z"/><polygon class="cls-5" points="823.34 96.18 824.91 98.88 835.85 94.19 834.27 91.47 823.34 96.18"/><path class="cls-5" d="M836,88.89c-2,.85-2.82,2.8-1.92,4.36s3.23,2.13,5.19,1.29,2.84-2.79,1.94-4.36S838,88,836,88.89Z"/><polygon class="cls-5" points="825.45 95.02 822.94 97.15 831.5 104.64 834.02 102.52 825.45 95.02"/><path class="cls-5" d="M837.41,103.16a4.25,4.25,0,0,0-5.41-.23,3,3,0,0,0,.18,4.65,4.31,4.31,0,0,0,5.42.24A3,3,0,0,0,837.41,103.16Z"/><polygon class="cls-5" points="827.36 96.4 824.25 95 818.62 104.33 821.74 105.72 827.36 96.4"/><path class="cls-5" d="M822.09,108.7a3.08,3.08,0,0,0-1.42-4.5,4.13,4.13,0,0,0-5.08,1.59,3.05,3.05,0,0,0,1.41,4.5A4.11,4.11,0,0,0,822.09,108.7Z"/><polygon class="cls-5" points="826.44 98.39 827.02 95.41 814.99 93.66 814.41 96.67 826.44 98.39"/><path class="cls-5" d="M811.21,97.88c2.18.3,4.21-.83,4.54-2.57s-1.16-3.35-3.32-3.67-4.2.83-4.54,2.55S809.05,97.56,811.21,97.88Z"/><polygon class="cls-5" points="823.95 98.26 827.44 97.8 825.63 87.41 822.15 87.85 823.95 98.26"/><path class="cls-5" d="M819.83,85.62a3.74,3.74,0,0,0,4.23,2.92,3.36,3.36,0,0,0,3-3.85,3.76,3.76,0,0,0-4.22-2.94A3.38,3.38,0,0,0,819.83,85.62Z"/><polygon class="cls-5" points="826.82 95.59 826.38 97.68 834.78 99.01 835.23 96.92 826.82 95.59"/><path class="cls-5" d="M837.47,96.11a2.74,2.74,0,0,0-3.22,1.75,2.41,2.41,0,0,0,2.3,2.6,2.74,2.74,0,0,0,3.21-1.73C840,97.52,839,96.36,837.47,96.11Z"/><polygon class="cls-5" points="826.34 97.36 823.89 97.64 825.03 104.93 827.46 104.64 826.34 97.36"/><path class="cls-5" d="M829.07,106.25a2.63,2.63,0,0,0-2.92-2.1,2.36,2.36,0,0,0-2.17,2.67,2.59,2.59,0,0,0,2.91,2.09A2.37,2.37,0,0,0,829.07,106.25Z"/><polygon class="cls-5" points="824.42 97.63 823.37 95.72 815.65 98.9 816.71 100.81 824.42 97.63"/><path class="cls-5" d="M815.44,102.61a2.22,2.22,0,0,0,1.43-3,2.91,2.91,0,0,0-3.63-.95c-1.39.58-2,1.94-1.41,3A2.89,2.89,0,0,0,815.44,102.61Z"/><polygon class="cls-5" points="823.4 96.03 825.2 94.59 819.3 89.24 817.52 90.71 823.4 96.03"/><path class="cls-5" d="M815.14,90.22a3,3,0,0,0,3.8.23,2.1,2.1,0,0,0-.07-3.27,3,3,0,0,0-3.79-.22A2.09,2.09,0,0,0,815.14,90.22Z"/><polygon class="cls-5" points="824.96 94.72 827.13 95.73 831.19 89.27 829.04 88.26 824.96 94.72"/><path class="cls-5" d="M828.83,86.16a2.14,2.14,0,0,0,.93,3.16,2.89,2.89,0,0,0,3.58-1,2.15,2.15,0,0,0-.92-3.17A2.92,2.92,0,0,0,828.83,86.16Z"/><path class="cls-5" d="M931.26,163.19c-6.79,2.43-17,11.63-14.2,17.49s17.62,6.11,24.42,3.68,10-9.14,7.18-15S938.06,160.76,931.26,163.19Z"/><path class="cls-5" d="M940.36,188.76c-4.79-4.8-18.13-10.34-23.71-6.23s-1.3,16.33,3.47,21.13,13.19,5.38,18.77,1.25S945.14,193.58,940.36,188.76Z"/><path class="cls-5" d="M914.73,204.17c3.84-5.4,5.82-18-.44-21.34s-18.44,4-22.28,9.38-1.85,12.46,4.41,15.76S910.89,209.57,914.73,204.17Z"/><path class="cls-5" d="M889.88,187.81c7.16,1.47,21.75-.8,23.46-7s-10.1-13.86-17.26-15.33-14.33,2.32-16,8.48S882.74,186.34,889.88,187.81Z"/><path class="cls-5" d="M900.31,162.58c.59,6.31,7.6,17.54,14.93,17s12.19-12.56,11.62-18.87-7-11-14.33-10.51S899.72,156.27,900.31,162.58Z"/><polygon class="cls-6" points="913.4 180.34 914.75 183.14 926.03 179.12 924.67 176.31 913.4 180.34"/><path class="cls-6" d="M926.63,173.83c-2,.73-3,2.63-2.28,4.24s3.06,2.33,5.09,1.59,3.06-2.61,2.28-4.22S928.66,173.1,926.63,173.83Z"/><polygon class="cls-6" points="915.6 179.33 912.91 181.29 920.86 189.28 923.53 187.31 915.6 179.33"/><path class="cls-6" d="M926.88,188.15a4.27,4.27,0,0,0-5.38-.55,3,3,0,0,0-.19,4.65,4.24,4.24,0,0,0,5.37.56A3,3,0,0,0,926.88,188.15Z"/><polygon class="cls-6" points="917.39 180.81 914.4 179.23 908.02 188.2 911.03 189.78 917.39 180.81"/><path class="cls-6" d="M911.13,192.77a3,3,0,0,0-1-4.57,4.21,4.21,0,0,0-5.22,1.28,3,3,0,0,0,1.06,4.57A4.17,4.17,0,0,0,911.13,192.77Z"/><polygon class="cls-6" points="916.31 182.75 917.13 179.8 905.26 177.36 904.43 180.3 916.31 182.75"/><path class="cls-6" d="M901.16,181.31c2.14.45,4.26-.56,4.73-2.26s-.88-3.44-3-3.88-4.27.57-4.73,2.27S899,180.87,901.16,181.31Z"/><polygon class="cls-6" points="913.83 182.46 917.35 182.22 916.38 171.74 912.87 171.97 913.83 182.46"/><path class="cls-6" d="M910.74,169.62a3.64,3.64,0,0,0,4,3.16,3.46,3.46,0,0,0,3.35-3.67,3.67,3.67,0,0,0-4-3.17A3.45,3.45,0,0,0,910.74,169.62Z"/><polygon class="cls-6" points="916.89 179.98 916.3 182.03 924.57 183.86 925.19 181.8 916.89 179.98"/><path class="cls-6" d="M927.5,181.13a2.77,2.77,0,0,0-3.35,1.55c-.35,1.17.57,2.41,2.07,2.73a2.76,2.76,0,0,0,3.33-1.54C929.92,182.69,929,181.46,927.5,181.13Z"/><polygon class="cls-6" points="916.29 181.71 913.83 181.84 914.37 189.19 916.83 189.06 916.29 181.71"/><path class="cls-6" d="M918.28,190.74a2.55,2.55,0,0,0-2.73-2.27,2.44,2.44,0,0,0-2.39,2.54,2.55,2.55,0,0,0,2.74,2.26A2.42,2.42,0,0,0,918.28,190.74Z"/><polygon class="cls-6" points="914.35 181.87 913.45 179.89 905.5 182.61 906.4 184.58 914.35 181.87"/><path class="cls-6" d="M905,186.3a2.26,2.26,0,0,0,1.66-2.94,2.87,2.87,0,0,0-3.55-1.17,2.24,2.24,0,0,0-1.65,2.93A2.88,2.88,0,0,0,905,186.3Z"/><polygon class="cls-6" points="913.47 180.21 915.38 178.87 909.93 173.19 908.02 174.54 913.47 180.21"/><path class="cls-6" d="M905.69,173.93a3,3,0,0,0,3.77.44,2.11,2.11,0,0,0,.2-3.27,3,3,0,0,0-3.77-.44A2.1,2.1,0,0,0,905.69,173.93Z"/><polygon class="cls-6" points="915.13 178.99 917.2 180.14 921.78 173.92 919.71 172.79 915.13 178.99"/><path class="cls-6" d="M919.68,170.69a2.11,2.11,0,0,0,.66,3.21,2.93,2.93,0,0,0,3.67-.85,2.11,2.11,0,0,0-.67-3.2A2.91,2.91,0,0,0,919.68,170.69Z"/><path class="cls-6" d="M804.86,143.26c-4.73,2-11.55,9.08-9.18,13.15s13,3.63,17.72,1.59,6.65-7,4.3-11S809.59,141.23,804.86,143.26Z"/><path class="cls-6" d="M812.85,161.21c-3.7-3.24-13.59-6.65-17.36-3.45s0,11.77,3.72,15a10.71,10.71,0,0,0,13.54.1A7.46,7.46,0,0,0,812.85,161.21Z"/><path class="cls-6" d="M795.37,173.36c2.43-4,3.13-13.19-1.56-15.28s-13,3.64-15.43,7.68-.62,9,4.08,11.11S792.92,177.39,795.37,173.36Z"/><path class="cls-6" d="M776.6,162.68c5.22.75,15.55-1.49,16.42-6s-8-9.51-13.25-10.27-10.15,2.28-11,6.77S771.39,161.94,776.6,162.68Z"/><path class="cls-6" d="M782.62,144.15c.78,4.5,6.46,12.25,11.7,11.58s8-9.53,7.23-14-5.65-7.61-10.88-6.93S781.84,139.65,782.62,144.15Z"/><polygon class="cls-5" points="793.03 156.32 794.16 158.28 802.03 154.91 800.89 152.95 793.03 156.32"/><path class="cls-5" d="M802.15,151.09c-1.42.62-2,2-1.39,3.14a3,3,0,0,0,3.74.92,2.25,2.25,0,0,0,1.4-3.12A3,3,0,0,0,802.15,151.09Z"/><polygon class="cls-5" points="794.55 155.51 792.75 157.03 798.9 162.43 800.72 160.89 794.55 155.51"/><path class="cls-5" d="M803.15,161.36a3.08,3.08,0,0,0-3.89-.18,2.15,2.15,0,0,0,.14,3.36,3.08,3.08,0,0,0,3.89.16A2.14,2.14,0,0,0,803.15,161.36Z"/><polygon class="cls-5" points="795.93 156.49 793.69 155.49 789.63 162.19 791.89 163.2 795.93 156.49"/><path class="cls-5" d="M792.13,165.34a2.21,2.21,0,0,0-1-3.23,3,3,0,0,0-3.67,1.14,2.2,2.2,0,0,0,1,3.23A3,3,0,0,0,792.13,165.34Z"/><polygon class="cls-5" points="795.26 157.93 795.68 155.78 787.03 154.53 786.61 156.68 795.26 157.93"/><path class="cls-5" d="M784.32,157.55a2.76,2.76,0,0,0,3.25-1.83c.24-1.23-.82-2.42-2.39-2.65a2.78,2.78,0,0,0-3.26,1.84C781.68,156.14,782.75,157.32,784.32,157.55Z"/><polygon class="cls-5" points="793.48 157.82 795.98 157.51 794.68 150.03 792.17 150.36 793.48 157.82"/><path class="cls-5" d="M790.51,148.74a2.7,2.7,0,0,0,3,2.11,2.44,2.44,0,0,0,2.19-2.78,2.71,2.71,0,0,0-3-2.11A2.44,2.44,0,0,0,790.51,148.74Z"/><polygon class="cls-5" points="795.53 155.92 795.21 157.42 801.25 158.37 801.58 156.87 795.53 155.92"/><path class="cls-5" d="M803.2,156.29a1.94,1.94,0,0,0-2.31,1.25c-.2.86.54,1.7,1.63,1.88a2,2,0,0,0,2.31-1.25C805,157.3,804.28,156.47,803.2,156.29Z"/><polygon class="cls-5" points="795.2 157.18 793.43 157.39 794.25 162.64 796 162.43 795.2 157.18"/><path class="cls-5" d="M797.15,163.56a1.89,1.89,0,0,0-2.1-1.49,1.72,1.72,0,0,0-1.57,1.93,1.89,1.89,0,0,0,2.1,1.49A1.71,1.71,0,0,0,797.15,163.56Z"/><polygon class="cls-5" points="793.81 157.38 793.05 156.01 787.51 158.29 788.27 159.66 793.81 157.38"/><path class="cls-5" d="M787.35,161a1.58,1.58,0,0,0,1-2.17,2.1,2.1,0,0,0-2.62-.7,1.58,1.58,0,0,0-1,2.18A2.09,2.09,0,0,0,787.35,161Z"/><polygon class="cls-5" points="793.07 156.23 794.37 155.18 790.13 151.34 788.85 152.4 793.07 156.23"/><path class="cls-5" d="M787.13,152.05a2.18,2.18,0,0,0,2.74.16,1.5,1.5,0,0,0-.06-2.34,2.14,2.14,0,0,0-2.71-.16A1.5,1.5,0,0,0,787.13,152.05Z"/><polygon class="cls-5" points="794.2 155.29 795.76 156.02 798.68 151.36 797.13 150.65 794.2 155.29"/><path class="cls-5" d="M797,149.14a1.54,1.54,0,0,0,.69,2.27,2.08,2.08,0,0,0,2.57-.77,1.54,1.54,0,0,0-.67-2.27A2.11,2.11,0,0,0,797,149.14Z"/><path class="cls-5" d="M865.59,61.7s18.33,10.75,32.1-10.87C897.69,50.83,879.59,41.24,865.59,61.7Z"/><path class="cls-5" d="M865.59,61.7s20.62-.86,16.79-21.61C882.38,40.09,862.68,41.64,865.59,61.7Z"/><path class="cls-4" d="M899.1,133.28a36.91,36.91,0,0,1,15.95-3.76,33.77,33.77,0,0,1,16.12,4.22c5.65,2.44,12.2,2.2,17.78.41A45,45,0,0,0,963.82,126a45.42,45.42,0,0,1-15.17,7.4c-5.51,1.48-11.69,1.33-16.55-1.06a35.47,35.47,0,0,0-17-5.25,40.61,40.61,0,0,0-18,3.39Z"/><path class="cls-6" d="M947.47,134s-8.54-17.62,18.81-24.89C966.28,109.15,973.57,126.34,947.47,134Z"/><path class="cls-6" d="M947.48,134.05s5.13-17.23,28-9.84C975.44,124.21,969.72,140.53,947.48,134.05Z"/><path class="cls-4" d="M520.78,105.31c-7.18,12.76-24.17,30.5-13.73,57.63,11.33,29.44,35.33,22,39.37,45.46,1.69,9.79-8.72,17.18-13.33,28-6.15,14.42,1.59,31,21,33.49,0,0-15.71-16.59,5.06-24.18s78.49-27.74,61.4-65.79-59.35-25.28-59.35-25.28l-36.81-34.31Z"/><path class="cls-7" d="M521.13,121.26c-2.73,6-6.87,26.15-1.34,34s5.8,4.8,4.11,11.16-6.16,12.84-.79,13.8,8.12,1.07,6.87,3.43S528.69,187,532.3,187s5.27-1.57,3.87-.75c-2.1,1.25-5.06,4.07-2.1,5.4,4.46,2,3.63,1.62,4,4.2s1.83,5.3,6.65,4.67,17.79-10.21,22.68-9.57c4.68.62,7.9,5.14,4.57,13S556.12,219,555,225.21c0,0,54.91-15.89,51.34-34.82s-9.11-39.12-11.28-40.93S521.13,121.26,521.13,121.26Z"/><path class="cls-8" d="M518.09,125.15c8,13.9,20.65,13,44.57,26.68,12,6.84,26.19,18,26.21,36.29,0,14.06-16.43,26.8-30.27,33.57-31.1,15.22-29,44-4.52,48.19,0,0-32.84-23.74,18.79-37.75,19.23-5.23,54.14-17,53.34-46-1.11-39.93-34.64-47.2-43.68-51.38-17.07-7.87-62.32-11.07-59.69-31.82C522.84,103,511.52,113.73,518.09,125.15Z"/><path class="cls-9" d="M542.66,103.63s-22.51-11.5-37.84-2.4,3.37,11.6,5.39,12.11,13.47,7.6,18.6,5.48S543.65,106,543.65,106Z"/><path class="cls-10" d="M546.5,108.42s9.77,14.64,5.94,17.7-17.51,2.83-20-1.28-.93-10.85,10.65-18.35C543.11,106.49,545,105.62,546.5,108.42Z"/><path class="cls-10" d="M540.22,103.84c.91-.85-6.06-2.19-9.43-2.58s-7.82-1.46-10.25.66c-2,1.7-1.21,4,1.16,4.35S538.11,105.82,540.22,103.84Z"/><path class="cls-10" d="M540,105.7c.79-1-6-.15-8.5,1.42s-9.09,8.27-8.13,9.71,4.06,1.68,5,1.19,2-3.38,2.64-4.66a22.58,22.58,0,0,1,5.85-6C538.58,106.37,539.6,106.14,540,105.7Z"/><path class="cls-10" d="M519.06,114.19c0,.88,2.12,2.71,3.31,2s2.15-3.72,3.67-5.26,4.83-3.56,4-4-3.71-.34-6,1.55S519.08,113.3,519.06,114.19Z"/><path class="cls-10" d="M515.14,111.92c-.37.8,1.18,2.56,2.68,2.07s1.57-2.57,2.71-3.5,4.27-2.73,4.1-3-1.53-.73-4.38.6S515.64,110.87,515.14,111.92Z"/><path class="cls-10" d="M511.29,110.39c-.35,1,1.78,2.14,2.72,1.64s3.67-3.75,5.66-4.3.94-1.42-.25-1.3S512,108.41,511.29,110.39Z"/><path class="cls-11" d="M506.14,107.66c-.36.59.84,1,1.94,1.58s1.62,1.58,2.42.75a37.49,37.49,0,0,1,7.57-4.24c1-.14,1.38-1.3,0-1.53S507.86,104.78,506.14,107.66Z"/><path class="cls-11" d="M500.84,105.76c-.39.44,1.07.41,1.9.44s1.28.68,2.2.55,8.43-3.06,12.06-3.51c2.6-.34,1.33-2.26.25-2.63C515.68,100.08,506.23,99.72,500.84,105.76Z"/><path class="cls-9" d="M551.4,117.37a21.87,21.87,0,0,1-1.92-1.62L546,112.26a3.72,3.72,0,0,0-1-2.94,1.32,1.32,0,0,0-.94-.29,1.79,1.79,0,0,0-.85.34A6.84,6.84,0,0,0,541.3,112c-.87.65-1.75,1.28-2.65,1.9-.45.32-.9.62-1.36.91a14.42,14.42,0,0,0-1.37.94,23.57,23.57,0,0,0-2.42,2.14,9.46,9.46,0,0,0-1.91,2.48,9.31,9.31,0,0,1,2-2.42,26.18,26.18,0,0,1,2.49-2.06,14.74,14.74,0,0,1,1.38-.88c.48-.28.95-.58,1.41-.88.71-.45,1.41-.94,2.11-1.41a14,14,0,0,0-1.13,3.92c-1.05,1-2,2.06-3,3.12s-1.93,2.17-2.87,3.26c1-1.06,2-2.1,3-3.13s1.86-1.86,2.85-2.75v0a1,1,0,0,1,.13.4,2,2,0,0,0,.78,1.31,25.34,25.34,0,0,0-1.69,3.48,13,13,0,0,0-.58,1.87,4.79,4.79,0,0,0-.09,1.92,4.55,4.55,0,0,1,.2-1.9,13.8,13.8,0,0,1,.68-1.82,26.52,26.52,0,0,1,1.85-3.33,5.31,5.31,0,0,0,1.39.47l.3,0a33.21,33.21,0,0,1,.61,3.28,6,6,0,0,1,0,1.74,2.25,2.25,0,0,0,.49,1.68,2.19,2.19,0,0,1-.38-1.67,6.11,6.11,0,0,0,.09-1.76,30.72,30.72,0,0,0-.39-3.29,1.8,1.8,0,0,0,.67-.29c.91-.61,1.43-2.09,1.72-3.64.2.6.4,1.21.59,1.81a19.64,19.64,0,0,1,.64,2.76,5.9,5.9,0,0,0,.88,2.73c.45.87,1,1.71,1.48,2.54a29.07,29.07,0,0,1-1.38-2.58,5.88,5.88,0,0,1-.76-2.7,17.85,17.85,0,0,0-.53-2.81c-.24-.91-.5-1.81-.78-2.71.1-.66.15-1.3.18-1.87l3.29,3.06a23.45,23.45,0,0,0,2,1.56l.29.2-.08-.17Zm-5.81-5.05c-.06,1.67-.37,5.65-1.89,6.66a1.28,1.28,0,0,1-1,.19c-1.92-.4-2.07-1.11-2.19-1.69a1.58,1.58,0,0,0-.19-.53c-.2-.45,1.18-5.92,3.2-7.28a1.5,1.5,0,0,1,.64-.26.83.83,0,0,1,.57.2A3.4,3.4,0,0,1,545.59,112.32Z"/><path class="cls-9" d="M553.21,124c-1.1,1.14-2,1.3-2.82,2a2.7,2.7,0,0,1-2.71.8c-1.19-.29-1-.22-2.19.14a4.15,4.15,0,0,1-3.28-.31,4.41,4.41,0,0,0-2.84-.35c-1.06.11-1,.46-1.91-.71a3,3,0,0,0-2.41-1.41,2,2,0,0,1-1.82-1.42,3.19,3.19,0,0,0-1.29-1.78,1,1,0,0,1-.44-.69,7.16,7.16,0,0,0,1,4.51c2.47,4.11,16.14,4.33,20,1.28a2.76,2.76,0,0,0,.89-2.18A.94.94,0,0,0,553.21,124Z"/><path class="cls-9" d="M546.5,108.42c-1.53-2.8-3.39-1.93-3.39-1.93a33.75,33.75,0,0,0-9.27,8.26c.73-1.11,6.24-5.63,7.57-6a2,2,0,0,1,2.24.2c.85.52.89-.15,2.64.77s3.42,4.09,3.65,4.52C548.22,111,546.5,108.42,546.5,108.42Z"/><path class="cls-9" d="M534.23,119.89a.52.52,0,0,1-.16.79.74.74,0,0,1-.91-.14.52.52,0,0,1,.16-.79A.72.72,0,0,1,534.23,119.89Z"/><path class="cls-9" d="M536.76,123a.52.52,0,0,1-.16.78.71.71,0,0,1-.91-.14.5.5,0,0,1,.16-.78A.72.72,0,0,1,536.76,123Z"/><path class="cls-9" d="M540.68,124.48a.53.53,0,0,1-.17.79.74.74,0,0,1-.92-.14.54.54,0,0,1,.17-.79A.74.74,0,0,1,540.68,124.48Z"/><path class="cls-9" d="M544.45,125.57a.34.34,0,0,1-.11.51.47.47,0,0,1-.59-.09.33.33,0,0,1,.11-.51A.47.47,0,0,1,544.45,125.57Z"/><path class="cls-9" d="M546.19,101.53S541.66,79.32,557,70.22s11.41,6.82,11.24,8.62,3.5,13.54-.62,16.92-19.21,7.4-19.21,7.4Z"/><path class="cls-10" d="M550,106.32s12.44,13.05,17.12,11.05,9.27-13.09,5.7-16.53-11.46-4.59-23.71,2.07C549.14,102.91,547.53,104.1,550,106.32Z"/><path class="cls-10" d="M547.29,99.64c-1.24.43-.25-5.65.52-8.51s1.18-6.81,4.35-8c2.55-1,4.75.44,4.32,2.47S550.18,98.64,547.29,99.64Z"/><path class="cls-10" d="M549.39,100.09c-1.34.3,2-4.87,4.56-6.34s12.19-4.39,13.41-3.1.4,3.86-.47,4.45-4.4.45-6,.47a27.7,27.7,0,0,0-8.63,2.58C550.61,99.21,550,100,549.39,100.09Z"/><path class="cls-10" d="M566,86.26c1,.29,2.2,2.68,1,3.38s-4.79.41-7,1.09-5.58,2.62-5.73,1.84.94-3.11,3.83-4.3S565,86,566,86.26Z"/><path class="cls-10" d="M564.94,82.32c1,0,2.36,1.84,1.31,2.88s-3.36.35-4.77.94-4.49,2.47-4.75,2.23-.26-1.49,2.19-3.32S563.61,82.34,564.94,82.32Z"/><path class="cls-10" d="M564.64,78.67c1.22.07,1.69,2.19.81,2.77s-5.37,1.62-6.66,3-1.89.25-1.33-.66S562.24,78.54,564.64,78.67Z"/><path class="cls-11" d="M563.5,73.55c.77-.07.76,1,1,2.13s1.14,1.86,0,2.22-6.8,3.85-7.29,4.58-1.91.65-1.65-.54S559.76,73.92,563.5,73.55Z"/><path class="cls-11" d="M563.32,68.62c.62-.17.06,1-.2,1.68s.28,1.28-.18,2-6.31,5.71-8.09,8.47c-1.29,2-2.93.27-3-.73C551.88,78.55,554.84,70.81,563.32,68.62Z"/><path class="cls-9" d="M558.07,113.57a1.67,1.67,0,0,0,.16.12l-.11-.29a17.65,17.65,0,0,0-1-2.17L555,107.48c.62.18,1.34.37,2.1.53.87.54,1.76,1.07,2.67,1.58A23.84,23.84,0,0,0,562.6,111a7.68,7.68,0,0,1,2.66,1.57c.81.64,1.58,1.32,2.32,2-.72-.73-1.46-1.42-2.24-2.09a7.78,7.78,0,0,0-2.66-1.68,25.51,25.51,0,0,1-2.77-1.49c-.59-.36-1.16-.74-1.75-1.12,1.79.32,3.58.43,4.57-.09a1.71,1.71,0,0,0,.54-.44c1.13.53,2.26,1,3.44,1.48a9.17,9.17,0,0,0,1.94.55,3,3,0,0,1,1.68.9,3,3,0,0,0-1.65-1,9.89,9.89,0,0,1-1.88-.63c-1.15-.51-2.26-1.07-3.36-1.66a2.41,2.41,0,0,0,.08-.25,3.82,3.82,0,0,0,0-1.29,35.92,35.92,0,0,1,4.28-.3,18.07,18.07,0,0,1,2.21.09,7.28,7.28,0,0,1,2.14.51,7.1,7.1,0,0,0-2.12-.6,16.5,16.5,0,0,0-2.23-.2,35.71,35.71,0,0,0-4.39.13,2.12,2.12,0,0,0-1.14-1.09,1.93,1.93,0,0,1-.39-.24s0,0,0,0c1.3-.48,2.65-.91,4-1.32,1.49-.47,3-.91,4.49-1.35-1.52.37-3,.76-4.56,1.16s-3,.8-4.45,1.28a21.9,21.9,0,0,0-4.65-.48c.76-.38,1.53-.77,2.28-1.19.49-.27,1-.54,1.45-.82a15.79,15.79,0,0,1,1.45-.81A31.8,31.8,0,0,1,565,99.29a13,13,0,0,1,3.33-.75,12.83,12.83,0,0,0-3.37.66,29,29,0,0,0-3.19,1.19,16.38,16.38,0,0,0-1.5.78c-.48.26-1,.52-1.47.77-1,.5-2,1-3,1.46a9,9,0,0,0-3.54.61,1.57,1.57,0,0,0-.66.57.9.9,0,0,0,0,.86,4.65,4.65,0,0,0,2.82,1.87l2.57,4a19.2,19.2,0,0,1,1.08,2.12ZM552,105.29a.55.55,0,0,1,0-.53,1.2,1.2,0,0,1,.5-.42c2.19-1.15,8.61-.32,9,0a1.62,1.62,0,0,0,.51.34c.58.3,1.3.68,1.06,2.37a1,1,0,0,1-.57.76c-1.65.86-6.08-.3-7.91-.84A4.39,4.39,0,0,1,552,105.29Z"/><path class="cls-9" d="M564.61,117.25c1.63-.48,2.11-1.14,3.2-1.56s1.74-.85,1.84-1.9.1-.88.92-1.7a2.84,2.84,0,0,0,.82-2.76,3,3,0,0,1,.63-2.4c.5-.82.85-.62-.09-1.8s-.88-1.68-.68-2.44a1.68,1.68,0,0,0-.9-2,3.3,3.3,0,0,1-1.47-1.67,1.13,1.13,0,0,0-.6-.6,9.9,9.9,0,0,1,4.57,2.38c3.57,3.44-1,14.52-5.7,16.53a3.93,3.93,0,0,1-2.68-.06Z"/><path class="cls-9" d="M550,106.32c-2.5-2.22-.89-3.41-.89-3.41a39.24,39.24,0,0,1,12.25-4.54c-1.46.2-8.32,3-9.22,3.95-.62.64-.91.81-.59,1.88.27.86-.47.67-.1,2.4s3.24,4.2,3.62,4.54C552.22,108.62,550,106.32,550,106.32Z"/><path class="cls-9" d="M566.84,100.51a.71.71,0,0,0,.91.14.53.53,0,0,0,.17-.78.73.73,0,0,0-.92-.14A.51.51,0,0,0,566.84,100.51Z"/><path class="cls-9" d="M569.36,103.66a.71.71,0,0,0,.91.14.51.51,0,0,0,.17-.78.73.73,0,0,0-.91-.15A.53.53,0,0,0,569.36,103.66Z"/><path class="cls-9" d="M569.54,107.32a.73.73,0,0,0,.92.14.51.51,0,0,0,.16-.78.72.72,0,0,0-.91-.14A.51.51,0,0,0,569.54,107.32Z"/><path class="cls-9" d="M569.39,110.74a.47.47,0,0,0,.59.1.35.35,0,0,0,.11-.52.49.49,0,0,0-.6-.09A.34.34,0,0,0,569.39,110.74Z"/><path class="cls-9" d="M547.2,109.13a30.77,30.77,0,0,0,5.44,7.55c3.05,2.8,5.15,4.57,6.24,3.92l-10-12.47Z"/><path class="cls-9" d="M550.55,107.13s4.33,3.62,6.29,7.06,3.14,5.76,2,6.41l-10-12.47Z"/><path class="cls-9" d="M545,100.38a1.51,1.51,0,0,1-.48,2.29,2.11,2.11,0,0,1-2.66-.42,1.49,1.49,0,0,1,.49-2.28A2.11,2.11,0,0,1,545,100.38Z"/><path class="cls-9" d="M544.07,102a28.32,28.32,0,0,0-3.27-2.55,29.42,29.42,0,0,0-3.64-2.14,20.06,20.06,0,0,0-4-1.49,12,12,0,0,0-4.26-.3.31.31,0,0,1-.37-.24.28.28,0,0,1,.27-.32h0a12.48,12.48,0,0,1,4.49.46,19.43,19.43,0,0,1,4,1.64,30.2,30.2,0,0,1,3.58,2.27A30.62,30.62,0,0,1,544.07,102Z"/><path class="cls-9" d="M544,102.12a25.82,25.82,0,0,1-1.62-3.56,22.89,22.89,0,0,1-1-3.68,13.65,13.65,0,0,1-.18-3.77,7.84,7.84,0,0,1,1.18-3.53.28.28,0,0,0-.13-.4.37.37,0,0,0-.45.12,0,0,0,0,0,0,0,8.48,8.48,0,0,0-1.09,3.78,13.43,13.43,0,0,0,.36,3.84,22.65,22.65,0,0,0,1.19,3.69A27.42,27.42,0,0,0,544,102.12Z"/><path class="cls-9" d="M546.15,101.34a2,2,0,0,0-2.38.43,1.64,1.64,0,0,0-1.31,1.76c.18,1.45-.27,3,4.74,5.6a3,3,0,0,0,2.18-.37,2.19,2.19,0,0,0,1.17-1.63C549.49,102.18,547.66,102,546.15,101.34Z"/><path class="cls-9" d="M603.44,134.74s-.62-18.47-14.65-23.6-7.85,7.09-7.37,8.51-.21,11.36,3.73,13.49S602,136.35,602,136.35Z"/><path class="cls-10" d="M601.27,139.13s-7.49,12.23-11.63,11.28-9.94-9.19-7.72-12.46,8.31-5.3,19.42-1.69C601.34,136.26,602.86,137,601.27,139.13Z"/><path class="cls-10" d="M602.19,133.37c1.08.17-.89-4.57-2.05-6.75s-2.24-5.3-5-5.82c-2.22-.41-3.72,1-3,2.61S599.68,133,602.19,133.37Z"/><path class="cls-10" d="M600.6,134c1.13.05-2.52-3.64-4.88-4.45s-10.62-1.79-11.35-.58.41,3.15,1.23,3.5,3.61-.26,4.9-.47a23.71,23.71,0,0,1,7.41.85A16.84,16.84,0,0,0,600.6,134Z"/><path class="cls-10" d="M584.61,125.29c-.73.37-1.25,2.46-.12,2.85s3.91-.35,5.83-.13,5,1.32,4.95.68-1.36-2.37-3.9-2.92S585.33,124.92,584.61,125.29Z"/><path class="cls-10" d="M584.71,122c-.79.14-1.54,1.83-.49,2.51s2.76-.2,4,.07,4.07,1.36,4.23,1.12-.08-1.23-2.39-2.35A10.69,10.69,0,0,0,584.71,122Z"/><path class="cls-10" d="M584.26,119c-1,.23-.94,2-.12,2.34s4.61.54,5.92,1.49,1.56-.07,1-.72S586.16,118.55,584.26,119Z"/><path class="cls-11" d="M584.19,114.74c-.62,0-.41.93-.41,1.85s-.56,1.65.46,1.77A31.59,31.59,0,0,1,591,121c.53.52,1.66.25,1.22-.67S587.27,114.5,584.19,114.74Z"/><path class="cls-11" d="M583.4,110.75c-.53,0,.14.81.49,1.32s0,1.07.51,1.55,6.16,3.68,8.12,5.65a1.23,1.23,0,0,0,2.21-1C594.48,117.09,590.62,111.31,583.4,110.75Z"/><path class="cls-9" d="M596.22,146a14.46,14.46,0,0,1,.47-1.86l1.29-3.57a3.51,3.51,0,0,0,1.91-1.9.76.76,0,0,0-.18-.69,1.46,1.46,0,0,0-.64-.36,7.62,7.62,0,0,0-3,0c-.9-.24-1.8-.48-2.69-.74-.45-.14-.89-.27-1.33-.42a11.58,11.58,0,0,0-1.34-.41,24,24,0,0,0-2.79-.5,10.72,10.72,0,0,0-2.83-.06,10.68,10.68,0,0,1,2.82.13c.92.15,1.84.34,2.74.58.46.13.88.27,1.32.44s.88.32,1.32.46c.68.22,1.37.43,2.06.63a16.46,16.46,0,0,0-3.64,1.05c-1.28-.19-2.55-.29-3.82-.4s-2.58-.2-3.88-.29l3.86.45c1.15.14,2.32.29,3.46.5,0,0,0,0,0,0a1,1,0,0,1-.27.25,1.63,1.63,0,0,0-.7,1,32.29,32.29,0,0,0-3.55.52,15.09,15.09,0,0,0-1.75.48,5.36,5.36,0,0,0-1.59.78,5.62,5.62,0,0,1,1.62-.71,16.66,16.66,0,0,1,1.76-.39,29.28,29.28,0,0,1,3.49-.36,3,3,0,0,0,.23,1,1.14,1.14,0,0,0,.1.19c-.76.62-1.55,1.24-2.37,1.8a7,7,0,0,1-1.39.78,2.2,2.2,0,0,0-1.14,1,2.24,2.24,0,0,1,1.19-.95,7.45,7.45,0,0,0,1.44-.72c.86-.52,1.67-1.09,2.48-1.68a1.24,1.24,0,0,0,.52.28,6.67,6.67,0,0,0,3.68-.57c-.39.38-.79.77-1.2,1.14a16.48,16.48,0,0,1-1.93,1.59,5.85,5.85,0,0,0-1.81,1.72c-.5.65-1,1.32-1.4,2,.47-.66,1-1.31,1.47-1.94a6,6,0,0,1,1.85-1.64,19.29,19.29,0,0,0,2-1.55c.63-.54,1.24-1.09,1.84-1.64.57-.24,1.12-.5,1.59-.72l-1,3.3a16,16,0,0,0-.37,1.88c0,.09,0,.18,0,.26l.11-.12S596.22,146,596.22,146Zm1.51-5.67c-1.36.69-4.7,2.25-6.17,1.79a.87.87,0,0,1-.61-.53c-.51-1.32,0-1.72.39-2.05a1.14,1.14,0,0,0,.35-.34c.28-.33,5.28-1.89,7.26-1.28a1.09,1.09,0,0,1,.48.26.49.49,0,0,1,.1.43A3.3,3.3,0,0,1,597.73,140.29Z"/><path class="cls-9" d="M591.66,150a18.39,18.39,0,0,1-2.87-.8c-.94-.17-1.55-.44-1.84-1.26s-.25-.69-1.06-1.24a2.43,2.43,0,0,1-1.19-2.09,2.49,2.49,0,0,0-1-1.84c-.55-.59-.8-.38-.27-1.46s.39-1.47.08-2.05a1.3,1.3,0,0,1,.35-1.7,2.55,2.55,0,0,0,.86-1.55.83.83,0,0,1,.36-.57,7.31,7.31,0,0,0-3.2,2.55c-2.22,3.27,3.59,11.51,7.72,12.46a3.23,3.23,0,0,0,2.15-.42A.61.61,0,0,0,591.66,150Z"/><path class="cls-9" d="M601.27,139.13c1.59-2.14.07-2.87.07-2.87a33.64,33.64,0,0,0-10.71-1.91c1.22,0,7.26,1.26,8.16,1.87.62.42.88.51.83,1.42,0,.73.51.47.54,1.91s-1.8,3.83-2,4.16C600,141.28,601.27,139.13,601.27,139.13Z"/><path class="cls-9" d="M586.67,136.84a.57.57,0,0,1-.7.24.43.43,0,0,1-.28-.6.56.56,0,0,1,.7-.25A.44.44,0,0,1,586.67,136.84Z"/><path class="cls-9" d="M585.25,139.73a.57.57,0,0,1-.7.24.45.45,0,0,1-.29-.61.57.57,0,0,1,.7-.24A.44.44,0,0,1,585.25,139.73Z"/><path class="cls-9" d="M585.8,142.69a.55.55,0,0,1-.7.24.45.45,0,0,1-.29-.6.57.57,0,0,1,.71-.24A.43.43,0,0,1,585.8,142.69Z"/><path class="cls-9" d="M586.58,145.41a.38.38,0,0,1-.45.16.28.28,0,0,1-.19-.39.37.37,0,0,1,.46-.16A.28.28,0,0,1,586.58,145.41Z"/><path class="cls-9" d="M606.67,135.92s15.87-12.43,29.91-7.29-.49,9.79-2,10.47-9.35,8-13.87,7.05-14.36-8.21-14.36-8.21Z"/><path class="cls-10" d="M604.5,140.3s-5,13.14-1.38,15,14.59-.22,15.79-3.85-1.33-8.83-12-13.23C606.86,138.27,605.19,137.84,604.5,140.3Z"/><path class="cls-10" d="M608.67,135.74c-.88-.55,4.45-2.62,7.08-3.41s6-2.28,8.35-.92c1.89,1.09,1.72,3-.11,3.66S610.75,137,608.67,135.74Z"/><path class="cls-10" d="M609.23,137.19c-.82-.67,4.78-1,7.1-.06s8.88,5.35,8.37,6.64-2.93,1.93-3.79,1.66-2.29-2.42-3-3.36a20.64,20.64,0,0,0-5.86-4A17.57,17.57,0,0,1,609.23,137.19Z"/><path class="cls-10" d="M627.64,141.05c.19.7-1.19,2.48-2.3,2s-2.43-2.68-4-3.71-4.54-2.17-4-2.6,2.91-.8,5.13.39S627.44,140.33,627.64,141.05Z"/><path class="cls-10" d="M630.34,138.68c.45.57-.46,2.21-1.75,2s-1.75-1.84-2.85-2.43-4-1.59-3.86-1.85,1.08-.8,3.62-.15S629.73,137.9,630.34,138.68Z"/><path class="cls-10" d="M633.13,136.9c.49.76-1,2-1.87,1.7s-3.65-2.49-5.35-2.65-1-1-.06-1.08S632.19,135.41,633.13,136.9Z"/><path class="cls-11" d="M636.75,134c.4.42-.5.9-1.26,1.55s-1,1.49-1.8.94a32.34,32.34,0,0,0-6.88-2.34c-.81,0-1.36-.85-.28-1.22S634.82,131.91,636.75,134Z"/><path class="cls-11" d="M640.64,131.71c.4.3-.78.47-1.44.61s-.91.74-1.65.76-7.36-1.26-10.36-1.12c-2.15.1-1.5-1.62-.71-2.07C627.64,129.24,635.15,127.62,640.64,131.71Z"/><path class="cls-9" d="M602.2,148.28a.74.74,0,0,1,0,.14l.19-.2a17.22,17.22,0,0,0,1.32-1.53l2.06-2.94c.13.46.3,1,.5,1.49-.06.76-.09,1.52-.1,2.28a14,14,0,0,0,.1,2.33,4.65,4.65,0,0,1-.09,2.28,22.17,22.17,0,0,1-.61,2.26,22.5,22.5,0,0,0,.7-2.25,4.89,4.89,0,0,0,.19-2.31,13.7,13.7,0,0,1,0-2.31c0-.51.08-1,.13-1.53a5.09,5.09,0,0,0,2.08,2.68,1.36,1.36,0,0,0,.58.13c.07.9.17,1.8.32,2.7a5.46,5.46,0,0,0,.41,1.4,1.72,1.72,0,0,1,0,1.39,1.76,1.76,0,0,0,.07-1.42,4.8,4.8,0,0,1-.3-1.39c-.1-.91-.13-1.82-.14-2.73l.23-.07a4.2,4.2,0,0,0,1-.57,21,21,0,0,1,2.12,2.41,10.58,10.58,0,0,1,.89,1.36,4,4,0,0,1,.53,1.5,3.89,3.89,0,0,0-.44-1.53,10,10,0,0,0-.82-1.41,22.49,22.49,0,0,0-2-2.56,1.48,1.48,0,0,0,.37-1.16.86.86,0,0,1,0-.34h0c1,.56,1.89,1.18,2.81,1.79s2,1.38,3.05,2.08c-1-.74-1.94-1.48-2.93-2.2s-1.94-1.43-3-2.1a12.76,12.76,0,0,0-1.65-3c.64.29,1.3.57,2,.84.42.18.85.35,1.3.51a10.85,10.85,0,0,1,1.27.51,22.7,22.7,0,0,1,2.38,1.29,8.68,8.68,0,0,1,2.07,1.66,8.62,8.62,0,0,0-2-1.72,20.92,20.92,0,0,0-2.35-1.37,9.54,9.54,0,0,0-1.27-.55c-.43-.18-.86-.35-1.27-.55-.84-.36-1.67-.75-2.49-1.14a6.14,6.14,0,0,0-2-1.84,1.73,1.73,0,0,0-.75-.15,1,1,0,0,0-.69.37,2.91,2.91,0,0,0-.28,2.5l-2.09,3.28a18.48,18.48,0,0,1-1.22,1.58A.43.43,0,0,0,602.2,148.28Zm4-7.27a.59.59,0,0,1,.42-.24,1.33,1.33,0,0,1,.56.11c1.88.81,4,5,4,5.4a1.21,1.21,0,0,0,0,.44c0,.48,0,1.08-1.44,1.67a1.07,1.07,0,0,1-.86,0c-1.41-.61-2.42-3.75-2.79-5.08A2.69,2.69,0,0,1,606.18,141Z"/><path class="cls-9" d="M602.1,153.78a20.06,20.06,0,0,0,2.66,1.23,2.26,2.26,0,0,0,2.33.26c.89-.4.75-.32,1.78-.2a3.3,3.3,0,0,0,2.57-.71,3.42,3.42,0,0,1,2.21-.68c.87-.07.87.23,1.4-.84a2.27,2.27,0,0,1,1.67-1.48,1.53,1.53,0,0,0,1.19-1.39,2.37,2.37,0,0,1,.69-1.61.78.78,0,0,0,.22-.62,5.79,5.79,0,0,1,.09,3.76c-1.2,3.63-12.12,5.75-15.79,3.85a2.37,2.37,0,0,1-1.12-1.62Z"/><path class="cls-9" d="M604.5,140.3c.69-2.46,2.36-2,2.36-2a30.33,30.33,0,0,1,9,5.32c-.8-.78-6.09-3.63-7.23-3.76-.78-.09-1-.19-1.76.47s-.75,0-2,1-2,3.77-2.07,4.15C603.61,142.62,604.5,140.3,604.5,140.3Z"/><path class="cls-9" d="M616.54,147.77a.44.44,0,0,0,.28.61.58.58,0,0,0,.71-.24.44.44,0,0,0-.29-.61A.57.57,0,0,0,616.54,147.77Z"/><path class="cls-9" d="M615.12,150.66a.44.44,0,0,0,.27.61.57.57,0,0,0,.71-.25.44.44,0,0,0-.28-.61A.57.57,0,0,0,615.12,150.66Z"/><path class="cls-9" d="M612.25,152.37a.44.44,0,0,0,.28.61.56.56,0,0,0,.7-.25.44.44,0,0,0-.27-.6A.58.58,0,0,0,612.25,152.37Z"/><path class="cls-9" d="M609.43,153.78a.28.28,0,0,0,.19.39.37.37,0,0,0,.46-.15.3.3,0,0,0-.19-.4A.37.37,0,0,0,609.43,153.78Z"/><path class="cls-9" d="M601,139.85a24.74,24.74,0,0,0-3.7,6.55c-.91,3-1.41,5.07-.41,5.44l5.65-11.43Z"/><path class="cls-9" d="M604.08,141a23.59,23.59,0,0,1-2.92,6.84c-1.92,2.68-3.25,4.39-4.26,4l5.65-11.43Z"/><path class="cls-9" d="M607.07,134.7a1.68,1.68,0,0,1-2.06.71,1.29,1.29,0,0,1-.83-1.77,1.67,1.67,0,0,1,2.06-.71A1.3,1.3,0,0,1,607.07,134.7Z"/><path class="cls-9" d="M605.34,134.89a20.46,20.46,0,0,0,.61-3.08,18,18,0,0,0,.13-3.11,11.34,11.34,0,0,0-.57-3,7,7,0,0,0-1.62-2.66.21.21,0,0,1,0-.33.3.3,0,0,1,.39,0h0a7.4,7.4,0,0,1,1.59,2.88,11.21,11.21,0,0,1,.44,3.13,17.24,17.24,0,0,1-.25,3.13A20.51,20.51,0,0,1,605.34,134.89Z"/><path class="cls-9" d="M605.23,134.85a24.28,24.28,0,0,1,2.14-2.53,20.62,20.62,0,0,1,2.52-2.22,15,15,0,0,1,2.94-1.76,9.57,9.57,0,0,1,3.36-.85.26.26,0,0,0,.26-.25.27.27,0,0,0-.29-.22h0a10.22,10.22,0,0,0-3.52,1,15.3,15.3,0,0,0-2.93,1.89,23.44,23.44,0,0,0-2.44,2.33A22.76,22.76,0,0,0,605.23,134.85Z"/><path class="cls-9" d="M606.81,135.81a1.44,1.44,0,0,0-1.39-1.22,1.66,1.66,0,0,0-2,0c-1.08.73-2.52,1.14-2.42,5.27a1.94,1.94,0,0,0,1.25,1.14,2.41,2.41,0,0,0,1.82,0C607.6,138.17,607,137,606.81,135.81Z"/><path class="cls-9" d="M605,92.48s2.23-13-6.91-18.17-6.53,4.15-6.4,5.21-1.79,8,.67,9.88,11.39,4.06,11.39,4.06Z"/><path class="cls-10" d="M602.89,95.34s-7,7.8-9.82,6.69-5.66-7.52-3.64-9.59,6.62-2.84,13.92.89C603.35,93.33,604.3,94,602.89,95.34Z"/><path class="cls-10" d="M604.36,91.39c.74.23,0-3.31-.47-5s-.81-4-2.69-4.63c-1.51-.53-2.77.33-2.48,1.52S602.65,90.85,604.36,91.39Z"/><path class="cls-10" d="M603.14,91.69c.79.15-1.24-2.83-2.79-3.65s-7.2-2.4-7.9-1.63a2.07,2.07,0,0,0,.36,2.6c.52.33,2.58.2,3.52.19a16.3,16.3,0,0,1,5.09,1.39A13.57,13.57,0,0,0,603.14,91.69Z"/><path class="cls-10" d="M593.15,83.83c-.56.18-1.23,1.6-.5,2s2.82.18,4.13.54,3.31,1.46,3.38,1-.6-1.81-2.31-2.47S593.72,83.64,593.15,83.83Z"/><path class="cls-10" d="M593.71,81.5c-.58,0-1.35,1.11-.71,1.71s2,.15,2.81.48,2.67,1.38,2.82,1.24.12-.88-1.34-1.91A7.18,7.18,0,0,0,593.71,81.5Z"/><path class="cls-10" d="M593.82,79.36c-.71.06-.94,1.31-.42,1.63s3.16.88,4,1.68,1.11.13.77-.4S595.22,79.25,593.82,79.36Z"/><path class="cls-11" d="M594.39,76.35c-.45,0-.42.62-.56,1.26s-.63,1.1.06,1.3a21,21,0,0,1,4.35,2.58c.3.42,1.13.35,1-.35S596.58,76.52,594.39,76.35Z"/><path class="cls-11" d="M594.41,73.46c-.37-.08,0,.59.15,1s-.14.75.14,1.14,3.79,3.25,4.89,4.85c.78,1.13,1.71.11,1.71-.47C601.29,79.11,599.41,74.63,594.41,73.46Z"/><path class="cls-9" d="M598.35,99.61a8.94,8.94,0,0,1,.59-1.25L600.36,96A2.68,2.68,0,0,0,602,94.84a.47.47,0,0,0,0-.5,1,1,0,0,0-.39-.33,5.55,5.55,0,0,0-2.08-.3c-.6-.27-1.2-.54-1.78-.82-.31-.13-.59-.28-.88-.43s-.59-.31-.88-.43a19.19,19.19,0,0,0-1.89-.65,7.1,7.1,0,0,0-2-.34,7.11,7.11,0,0,1,2,.39,18.57,18.57,0,0,1,1.85.7,8.93,8.93,0,0,1,.87.45,8.84,8.84,0,0,0,.86.46c.44.23.9.45,1.36.67a12.3,12.3,0,0,0-2.72.34c-.87-.26-1.75-.47-2.62-.69l-2.69-.62c.89.24,1.77.48,2.64.74s1.59.46,2.36.72h0a.59.59,0,0,1-.22.15,1.19,1.19,0,0,0-.64.65,22.05,22.05,0,0,0-2.57,0,11.4,11.4,0,0,0-1.31.14,4.21,4.21,0,0,0-1.23.39,4.14,4.14,0,0,1,1.24-.33,11.36,11.36,0,0,1,1.3-.09,23.31,23.31,0,0,1,2.51.12,2,2,0,0,0,0,.76.83.83,0,0,0,0,.15c-.63.35-1.26.7-1.93,1a5.83,5.83,0,0,1-1.08.4,1.59,1.59,0,0,0-.95.6,1.69,1.69,0,0,1,1-.55,5.48,5.48,0,0,0,1.13-.35c.67-.28,1.33-.59,2-.92a.8.8,0,0,0,.32.25,4.81,4.81,0,0,0,2.68,0l-1,.68c-.52.32-1,.64-1.59.91a4.26,4.26,0,0,0-1.53,1c-.44.41-.86.82-1.26,1.26.41-.42.85-.83,1.3-1.21a4.45,4.45,0,0,1,1.53-1,13.1,13.1,0,0,0,1.66-.88c.52-.31,1-.63,1.53-1,.43-.1.86-.22,1.22-.33l-1.2,2.22a8.46,8.46,0,0,0-.54,1.28c0,.06,0,.12,0,.17l.08-.07A.2.2,0,0,1,598.35,99.61Zm1.87-3.83c-1.06.34-3.63,1.08-4.61.6a.58.58,0,0,1-.34-.44c-.17-1,.24-1.21.57-1.4a.73.73,0,0,0,.29-.21c.25-.19,4-.75,5.3-.12a.65.65,0,0,1,.29.24.33.33,0,0,1,0,.31A2.57,2.57,0,0,1,600.22,95.78Z"/><path class="cls-9" d="M594.55,101.93a15,15,0,0,1-1.9-.86c-.63-.22-1-.48-1.1-1.09s-.08-.51-.58-1a1.71,1.71,0,0,1-.53-1.61A1.75,1.75,0,0,0,590,96c-.31-.47-.51-.35,0-1.06s.48-1,.35-1.43a1,1,0,0,1,.49-1.16,1.94,1.94,0,0,0,.83-1,.64.64,0,0,1,.34-.36,5.79,5.79,0,0,0-2.63,1.45c-2,2.07.87,8.49,3.64,9.59a2.38,2.38,0,0,0,1.57-.06Z"/><path class="cls-9" d="M602.89,95.34c1.41-1.34.46-2,.46-2a23.4,23.4,0,0,0-7.26-2.49A22,22,0,0,1,601.55,93c.38.36.55.45.38,1.09s.29.38.1,1.4-1.81,2.5-2,2.71C601.64,96.71,602.89,95.34,602.89,95.34Z"/><path class="cls-9" d="M592.94,92.16a.39.39,0,0,1-.53.1.3.3,0,0,1-.11-.45.42.42,0,0,1,.53-.1A.29.29,0,0,1,592.94,92.16Z"/><path class="cls-9" d="M591.52,94a.43.43,0,0,1-.53.11.33.33,0,0,1-.11-.47.42.42,0,0,1,.53-.09A.29.29,0,0,1,591.52,94Z"/><path class="cls-9" d="M591.48,96.19a.41.41,0,0,1-.52.1.31.31,0,0,1-.12-.46.44.44,0,0,1,.53-.1A.3.3,0,0,1,591.48,96.19Z"/><path class="cls-9" d="M591.63,98.19a.26.26,0,0,1-.34.06.18.18,0,0,1-.06-.29.26.26,0,0,1,.34-.07A.2.2,0,0,1,591.63,98.19Z"/><path class="cls-9" d="M607.14,93.66s13-7,22.09-1.92-1.76,6.83-2.93,7.15-7.73,4.64-10.77,3.47-8.92-7.31-8.92-7.31Z"/><path class="cls-10" d="M605,96.51s-5.43,8.7-3.14,10.44,10.29,1.41,11.67-1,.33-6.36-6.57-10.59C606.94,95.34,605.82,94.86,605,96.51Z"/><path class="cls-10" d="M608.57,93.76c-.54-.49,3.51-1.38,5.46-1.65s4.56-1,6,.25a1.37,1.37,0,0,1-.6,2.56C618.08,95.17,609.85,94.88,608.57,93.76Z"/><path class="cls-10" d="M608.76,94.84c-.48-.57,3.5-.17,5,.71s5.47,4.71,4.93,5.56a2.92,2.92,0,0,1-2.91.77c-.56-.28-1.26-1.95-1.62-2.69a13.52,13.52,0,0,0-3.53-3.45A12.58,12.58,0,0,1,608.76,94.84Z"/><path class="cls-10" d="M621.14,99.51c0,.52-1.19,1.62-1.89,1.19s-1.33-2.13-2.25-3-2.89-2-2.43-2.25a4.09,4.09,0,0,1,3.55.82C619.52,97.33,621.11,99,621.14,99.51Z"/><path class="cls-10" d="M623.39,98.13c.23.47-.64,1.51-1.52,1.25s-1-1.49-1.65-2-2.55-1.54-2.46-1.72.89-.45,2.57.28A6.6,6.6,0,0,1,623.39,98.13Z"/><path class="cls-10" d="M625.61,97.18c.23.59-1,1.28-1.56,1s-2.21-2.14-3.38-2.43-.57-.83.12-.77S625.17,96,625.61,97.18Z"/><path class="cls-11" d="M628.58,95.52c.22.33-.47.57-1.1,1s-.92.94-1.42.47a22.09,22.09,0,0,0-4.49-2.38c-.57-.07-.83-.74,0-.89S627.52,93.86,628.58,95.52Z"/><path class="cls-11" d="M631.65,94.33c.23.26-.62.26-1.11.29s-.74.42-1.27.35-5-1.68-7.13-1.89c-1.52-.16-.81-1.3-.19-1.54C622.86,91.21,628.38,90.87,631.65,94.33Z"/><path class="cls-9" d="M602.21,101.87a.54.54,0,0,0,0,.1.83.83,0,0,1,.15-.11,13.25,13.25,0,0,0,1.14-.94l1.88-1.84c0,.32.07.7.13,1.09-.14.53-.28,1.06-.39,1.6a9.18,9.18,0,0,0-.26,1.64,3.54,3.54,0,0,1-.4,1.6c-.23.52-.48,1-.76,1.52a15.66,15.66,0,0,0,.82-1.5,3.74,3.74,0,0,0,.47-1.61,9.1,9.1,0,0,1,.32-1.62c.09-.36.2-.72.31-1.07a3.45,3.45,0,0,0,1.07,2.11,1,1,0,0,0,.4.15c-.09.65-.15,1.29-.18,1.93a4.57,4.57,0,0,0,.09,1,1.21,1.21,0,0,1-.19,1,1.3,1.3,0,0,0,.26-1,3.87,3.87,0,0,1,0-1c.05-.64.17-1.29.28-1.93l.18,0a3,3,0,0,0,.81-.29,14.92,14.92,0,0,1,1.14,1.92,8.72,8.72,0,0,1,.43,1.06,2.8,2.8,0,0,1,.16,1.11,2.71,2.71,0,0,0-.1-1.13,8.09,8.09,0,0,0-.37-1.08,13.92,13.92,0,0,0-1.06-2,1.11,1.11,0,0,0,.44-.77.92.92,0,0,1,.06-.24h0c.59.5,1.15,1,1.72,1.56l1.85,1.78L610.83,103c-.58-.6-1.16-1.21-1.8-1.78A8.38,8.38,0,0,0,608.3,99c.42.27.83.54,1.26.8.27.17.56.34.83.49a8.43,8.43,0,0,1,.84.49,17.16,17.16,0,0,1,1.49,1.18,5.61,5.61,0,0,1,1.21,1.38,6.18,6.18,0,0,0-1.15-1.42,17.29,17.29,0,0,0-1.47-1.22c-.25-.19-.55-.36-.81-.53s-.55-.34-.82-.51c-.54-.35-1.07-.71-1.58-1.08A4.26,4.26,0,0,0,606.93,97a1.12,1.12,0,0,0-.51-.18.71.71,0,0,0-.54.19,2.11,2.11,0,0,0-.55,1.73l-2,2.08a12.58,12.58,0,0,1-1.09,1Zm3.84-4.68a.48.48,0,0,1,.35-.12.9.9,0,0,1,.37.14c1.21.77,2.12,3.94,2,4.21a.55.55,0,0,0-.1.31c-.07.34-.14.76-1.25,1a.71.71,0,0,1-.61-.09c-.91-.58-1.16-2.9-1.23-3.87A2.05,2.05,0,0,1,606.05,97.19Z"/><path class="cls-9" d="M601.35,105.74a13.8,13.8,0,0,0,1.69,1.15,1.59,1.59,0,0,0,1.61.43c.68-.18.57-.15,1.28.05a2.39,2.39,0,0,0,1.9-.23,2.51,2.51,0,0,1,1.66-.23c.62,0,.58.25,1.11-.45a1.7,1.7,0,0,1,1.38-.86,1.14,1.14,0,0,0,1-.86,1.79,1.79,0,0,1,.73-1,.6.6,0,0,0,.24-.42,4.23,4.23,0,0,1-.47,2.66c-1.38,2.43-9.36,2.75-11.67,1a1.61,1.61,0,0,1-.56-1.26Z"/><path class="cls-9" d="M605,96.51c.84-1.65,2-1.17,2-1.17a20,20,0,0,1,5.57,4.71A20.31,20.31,0,0,0,608,96.62a1.19,1.19,0,0,0-1.3.15c-.5.32-.53-.07-1.53.48a7.6,7.6,0,0,0-2,2.7C604,98.05,605,96.51,605,96.51Z"/><path class="cls-9" d="M612.37,103.06a.31.31,0,0,0,.11.45.42.42,0,0,0,.54-.09.31.31,0,0,0-.12-.46A.43.43,0,0,0,612.37,103.06Z"/><path class="cls-9" d="M611,104.94a.29.29,0,0,0,.12.45.4.4,0,0,0,.52-.1.3.3,0,0,0-.1-.45A.43.43,0,0,0,611,104.94Z"/><path class="cls-9" d="M608.69,105.84a.3.3,0,0,0,.1.45.43.43,0,0,0,.54-.1.29.29,0,0,0-.11-.45A.4.4,0,0,0,608.69,105.84Z"/><path class="cls-9" d="M606.5,106.52a.21.21,0,0,0,.08.3.29.29,0,0,0,.34-.06.2.2,0,0,0-.07-.3A.27.27,0,0,0,606.5,106.52Z"/><path class="cls-9" d="M602.59,95.82A19,19,0,0,0,599,100c-1.08,2-1.73,3.41-1.07,3.77l5.63-7.43Z"/><path class="cls-9" d="M604.59,96.94a17.93,17.93,0,0,1-3,4.5c-1.74,1.67-2.93,2.74-3.58,2.37l5.63-7.43Z"/><path class="cls-9" d="M607.6,92.85a1.24,1.24,0,0,1-1.55.28.89.89,0,0,1-.34-1.33,1.24,1.24,0,0,1,1.56-.29A.9.9,0,0,1,607.6,92.85Z"/><path class="cls-9" d="M606.35,92.79a16.6,16.6,0,0,0,.89-2.09,13.85,13.85,0,0,0,.53-2.18,8.11,8.11,0,0,0,0-2.2,4.67,4.67,0,0,0-.77-2.06.16.16,0,0,1,.08-.22.2.2,0,0,1,.26,0h0a4.78,4.78,0,0,1,.7,2.2,7.71,7.71,0,0,1-.13,2.25,13.79,13.79,0,0,1-.63,2.17A14,14,0,0,1,606.35,92.79Z"/><path class="cls-9" d="M606.28,92.75a19.87,19.87,0,0,1,1.87-1.54,16,16,0,0,1,2.1-1.29,11.28,11.28,0,0,1,2.31-.93,7.07,7.07,0,0,1,2.5-.24.19.19,0,0,0,.21-.14.19.19,0,0,0-.17-.19h0a7.49,7.49,0,0,0-2.63.33,10.75,10.75,0,0,0-2.32,1,16.44,16.44,0,0,0-2.06,1.38A18.47,18.47,0,0,0,606.28,92.75Z"/><path class="cls-9" d="M607.26,93.6a1,1,0,0,0-.81-1,1.18,1.18,0,0,0-1.4-.22c-.86.4-1.93.54-2.46,3.45a1.27,1.27,0,0,0,.72.93,1.74,1.74,0,0,0,1.28.19C607.47,95.34,607.18,94.45,607.26,93.6Z"/><path class="cls-4" d="M736.51,43.1S701,33.48,668.46,60s-45.88,80.14-5.05,125.85c39.15,43.82,24.84,61.48,13.23,66.45s50,3.82,58.74-22.41,26.21-77.71,26.21-77.71-29.2-75.65-29.94-77.63S736.51,43.1,736.51,43.1Z"/><path class="cls-7" d="M702,61c-4.64,2.92-18.87,14.95-22.41,25.58s-2.68,11.56-1.4,15.39c2.14,6.42-6,10.58-10.42,13.72-6.9,4.86-14.82,8.3-7,13.22,8.73,5.54,5.08,8.35,1.61,10.13-2.56,1.32.69,5.29,1.72,6.49,0,0-5.4,2.95-2.89,5.76s6,3,5.69,5.35-5.23,10.81-.86,14.69,18.25,3.47,25.3,4.15c6,.57,14.1,1.35,19.79,7.35,18.14,19.13-16.36,61.56-16.36,61.56s43.69-24.4,75.15-50c9.93-8.07,1.55-33.08.87-33.87s-38.46-63.67-38.46-63.67Z"/><path class="cls-8" d="M696.53,65.14S684.29,90.93,727,132.73c39.15,38.34-16.34,114-65.92,124.36,0,0,124.82,6.7,157.9-73.17C856.19,94,801.5,52.07,768.82,41.67S705.68,47.43,696.53,65.14Z"/><path class="cls-7" d="M668.8,105s9.91,2.15,13.61-2.9l-1.73,5A23.06,23.06,0,0,1,668.8,105Z"/><path class="cls-6" d="M729.89,126.74s-27.19,1-25.29-29.19C704.6,97.55,730.66,97.63,729.89,126.74Z"/><path class="cls-6" d="M729.9,126.75s-20.85-12.4-1.28-31.88C728.62,94.87,748,107.47,729.9,126.75Z"/><path class="cls-12" d="M745.78,119.38c-4.83,2.45-11.45,10.33-8.59,14.5s14,3,18.89.57,6.44-7.81,3.6-12S750.62,116.93,745.78,119.38Z"/><path class="cls-12" d="M755.77,137.87c-4.2-3.19-15-6.17-18.67-2.56s1,12.46,5.2,15.65a11.32,11.32,0,0,0,14.34-.75A7.92,7.92,0,0,0,755.77,137.87Z"/><path class="cls-12" d="M738.29,151.84c2.24-4.43,2.2-14.16-2.93-16.09s-13.45,4.68-15.69,9.1.11,9.58,5.27,11.51S736.06,156.26,738.29,151.84Z"/><path class="cls-12" d="M717.53,141.73c5.58.46,16.32-2.58,16.86-7.38s-9.33-9.56-14.91-10-10.54,3-11.07,7.85S712,141.26,717.53,141.73Z"/><path class="cls-12" d="M722.32,121.72c1.22,4.71,7.88,12.57,13.36,11.52s7.67-10.58,6.47-15.3-6.64-7.69-12.11-6.64S721.1,117,722.32,121.72Z"/><polygon class="cls-5" points="734.38 133.95 735.73 135.95 743.77 131.88 742.4 129.89 734.38 133.95"/><path class="cls-5" d="M743.58,127.84c-1.45.74-2,2.26-1.21,3.4a3.22,3.22,0,0,0,4,.75,2.36,2.36,0,0,0,1.2-3.4A3.24,3.24,0,0,0,743.58,127.84Z"/><polygon class="cls-5" points="735.91 132.99 734.13 134.72 741.11 140.04 742.88 138.3 735.91 132.99"/><path class="cls-5" d="M745.52,138.64a3.25,3.25,0,0,0-4.13.07,2.27,2.27,0,0,0,.41,3.53,3.28,3.28,0,0,0,4.14-.07A2.29,2.29,0,0,0,745.52,138.64Z"/><polygon class="cls-5" points="737.45 133.94 734.99 133.02 731.28 140.38 733.74 141.3 737.45 133.94"/><path class="cls-5" d="M734.19,143.55a2.38,2.38,0,0,0-1.35-3.36,3.12,3.12,0,0,0-3.79,1.44,2.38,2.38,0,0,0,1.36,3.36A3.1,3.1,0,0,0,734.19,143.55Z"/><polygon class="cls-5" points="736.86 135.51 737.13 133.21 727.86 132.44 727.6 134.74 736.86 135.51"/><path class="cls-5" d="M725.25,135.8c1.68.14,3.15-.82,3.3-2.14s-1.08-2.52-2.76-2.66-3.14.82-3.29,2.15S723.59,135.66,725.25,135.8Z"/><polygon class="cls-5" points="734.97 135.51 737.59 135.02 735.58 127.19 732.96 127.68 734.97 135.51"/><path class="cls-5" d="M731.06,126.1a2.92,2.92,0,0,0,3.39,2,2.52,2.52,0,0,0,2.08-3.07,3,3,0,0,0-3.4-2A2.52,2.52,0,0,0,731.06,126.1Z"/><polygon class="cls-5" points="736.98 133.37 736.77 134.96 743.25 135.6 743.46 133.99 736.98 133.37"/><path class="cls-5" d="M745.12,133.27a2,2,0,0,0-2.33,1.48c-.13.91.72,1.76,1.89,1.88a2,2,0,0,0,2.33-1.47C747.14,134.23,746.29,133.39,745.12,133.27Z"/><polygon class="cls-5" points="736.73 134.72 734.88 135.05 736.19 140.55 738.03 140.23 736.73 134.72"/><path class="cls-5" d="M739.34,141.36A2.05,2.05,0,0,0,737,139.9a1.77,1.77,0,0,0-1.49,2.14,2,2,0,0,0,2.34,1.45A1.77,1.77,0,0,0,739.34,141.36Z"/><polygon class="cls-5" points="735.29 135.02 734.36 133.62 728.68 136.38 729.61 137.79 735.29 135.02"/><path class="cls-5" d="M728.76,139.21a1.65,1.65,0,0,0,.89-2.37,2.25,2.25,0,0,0-2.82-.56,1.65,1.65,0,0,0-.88,2.37A2.24,2.24,0,0,0,728.76,139.21Z"/><polygon class="cls-5" points="734.41 133.85 735.7 132.66 730.88 128.87 729.61 130.06 734.41 133.85"/><path class="cls-5" d="M727.77,129.81a2.3,2.3,0,0,0,2.9,0,1.6,1.6,0,0,0-.25-2.48,2.27,2.27,0,0,0-2.89,0A1.6,1.6,0,0,0,727.77,129.81Z"/><polygon class="cls-5" points="735.53 132.78 737.23 133.46 739.92 128.34 738.23 127.68 735.53 132.78"/><path class="cls-5" d="M737.94,126.09a1.65,1.65,0,0,0,.9,2.37,2.18,2.18,0,0,0,2.66-1,1.65,1.65,0,0,0-.9-2.36A2.16,2.16,0,0,0,737.94,126.09Z"/><path class="cls-9" d="M849.55,236.2s-16.59-13.87-31.91-8.77.12,10.56,1.73,11.35,9.74,8.91,14.65,8,15.82-8.4,15.82-8.4Z"/><path class="cls-10" d="M851.71,241s4.88,14.3.85,16.24-15.7-.67-16.83-4.63,1.79-9.48,13.53-13.87C849.26,238.73,851.06,238.31,851.71,241Z"/><path class="cls-10" d="M847.4,236c1-.57-4.68-3-7.47-3.9s-6.37-2.64-9-1.25c-2.08,1.12-2,3.21,0,3.95S845.11,237.27,847.4,236Z"/><path class="cls-10" d="M846.74,237.49c.91-.7-5.12-1.18-7.65-.28s-9.77,5.48-9.29,6.88,3.08,2.17,4,1.91,2.56-2.53,3.38-3.52a21.85,21.85,0,0,1,6.45-4.14C845.38,237.83,846.32,237.81,846.74,237.49Z"/><path class="cls-10" d="M826.76,241.08c-.24.76,1.18,2.7,2.39,2.27s2.72-2.8,4.4-3.87,5-2.19,4.41-2.67-3.12-1-5.56.26S827,240.32,826.76,241.08Z"/><path class="cls-10" d="M823.94,238.43c-.5.62.4,2.41,1.8,2.26s2-1.94,3.16-2.53,4.33-1.59,4.26-1.88-1.15-.9-3.91-.27S824.62,237.62,823.94,238.43Z"/><path class="cls-10" d="M821,236.44c-.55.8,1,2.15,1.94,1.89s4-2.57,5.88-2.69,1.15-1.06.1-1.16S822.08,234.86,821,236.44Z"/><path class="cls-11" d="M817.23,233.18c-.44.44.49,1,1.3,1.71s1,1.63,1.89,1.07a34.82,34.82,0,0,1,7.52-2.3c.86.06,1.49-.88.35-1.31S819.4,231,817.23,233.18Z"/><path class="cls-11" d="M813.14,230.62c-.44.3.81.54,1.52.7s.94.82,1.75.87,8-1.14,11.21-.89c2.3.18,1.67-1.69.83-2.2C827.24,228.36,819.21,226.38,813.14,230.62Z"/><path class="cls-9" d="M853.77,249.54a17.13,17.13,0,0,1-1.27-1.74l-2.11-3.6a3.18,3.18,0,0,0-.19-2.7,1,1,0,0,0-.74-.41,1.6,1.6,0,0,0-.81.13,6.75,6.75,0,0,0-2.27,1.91c-.9.4-1.81.8-2.72,1.17-.47.18-.93.37-1.4.54a11.81,11.81,0,0,0-1.39.55,23.08,23.08,0,0,0-2.59,1.42,9.3,9.3,0,0,0-2.24,1.78,9.47,9.47,0,0,1,2.3-1.72,24.69,24.69,0,0,1,2.62-1.32,13,13,0,0,1,1.4-.52c.48-.15,1-.33,1.42-.5.72-.27,1.44-.55,2.14-.85a13.47,13.47,0,0,0-1.9,3.17c-1.15.68-2.22,1.43-3.3,2.16s-2.17,1.52-3.25,2.29c1.12-.73,2.24-1.44,3.38-2.15s2-1.27,3.1-1.85v0a1,1,0,0,1,0,.37,1.54,1.54,0,0,0,.35,1.25,24,24,0,0,0-2.28,2.69,11.93,11.93,0,0,0-.95,1.51,4.36,4.36,0,0,0-.54,1.63,4.32,4.32,0,0,1,.63-1.6,11.76,11.76,0,0,1,1-1.44,24.67,24.67,0,0,1,2.38-2.53,4.55,4.55,0,0,0,1.08.65l.25.08a28.72,28.72,0,0,1-.26,2.93,5.75,5.75,0,0,1-.4,1.5,1.91,1.91,0,0,0,0,1.52,1.91,1.91,0,0,1,.08-1.5,5.72,5.72,0,0,0,.49-1.48,28.82,28.82,0,0,0,.45-2.91,1.63,1.63,0,0,0,.65-.12,5.56,5.56,0,0,0,2.35-2.83c0,.56.06,1.11.06,1.66a15.74,15.74,0,0,1-.1,2.48,5.16,5.16,0,0,0,.1,2.5c.18.83.4,1.64.66,2.45-.22-.82-.42-1.63-.56-2.46a4.84,4.84,0,0,1,0-2.45,17.83,17.83,0,0,0,.21-2.51c0-.82,0-1.64,0-2.46.23-.56.43-1.11.59-1.58l2.09,3.21a17.07,17.07,0,0,0,1.35,1.7,2.2,2.2,0,0,1,.2.23c0-.06,0-.11,0-.17ZM850,244.18c-.46,1.42-1.68,4.78-3.22,5.38a1.16,1.16,0,0,1-.93,0c-1.55-.69-1.5-1.33-1.48-1.84a1.24,1.24,0,0,0,0-.48c-.07-.44,2.43-4.88,4.49-5.69a1.37,1.37,0,0,1,.6-.11.66.66,0,0,1,.45.27A3,3,0,0,1,850,244.18Z"/><path class="cls-9" d="M853.73,255.58a21.75,21.75,0,0,1-2.91,1.24,2.48,2.48,0,0,1-2.53.21c-.93-.46-.79-.37-1.9-.27a3.49,3.49,0,0,1-2.74-.85,3.62,3.62,0,0,0-2.35-.8c-.94-.09-1,.23-1.48-1a2.42,2.42,0,0,0-1.73-1.64,1.6,1.6,0,0,1-1.22-1.54,2.5,2.5,0,0,0-.69-1.75.86.86,0,0,1-.21-.68,6.28,6.28,0,0,0-.24,4c1.13,4,12.81,6.57,16.83,4.63a2.64,2.64,0,0,0,1.29-1.71A.67.67,0,0,0,853.73,255.58Z"/><path class="cls-9" d="M851.71,241c-.65-2.68-2.45-2.26-2.45-2.26a32.7,32.7,0,0,0-9.94,5.45c.89-.83,6.7-3.72,7.93-3.83.85-.07,1.13-.18,1.88.57.6.59.81,0,2.08,1.12s1.95,4.12,2,4.53C852.56,243.51,851.71,241,851.71,241Z"/><path class="cls-9" d="M838.43,248.66a.49.49,0,0,1-.33.65.62.62,0,0,1-.75-.29.49.49,0,0,1,.33-.65A.64.64,0,0,1,838.43,248.66Z"/><path class="cls-9" d="M839.84,251.82a.47.47,0,0,1-.33.64.62.62,0,0,1-.75-.28.49.49,0,0,1,.33-.65A.61.61,0,0,1,839.84,251.82Z"/><path class="cls-9" d="M842.86,253.75a.48.48,0,0,1-.33.64.61.61,0,0,1-.75-.28.49.49,0,0,1,.33-.65A.61.61,0,0,1,842.86,253.75Z"/><path class="cls-9" d="M845.83,255.35a.3.3,0,0,1-.21.41.38.38,0,0,1-.48-.18.3.3,0,0,1,.21-.41A.38.38,0,0,1,845.83,255.35Z"/><path class="cls-9" d="M853.08,235s1.43-19.86,16.76-25,8.16,7.88,7.58,9.4-.24,12.24-4.58,14.41-18.26,2.95-18.26,2.95Z"/><path class="cls-10" d="M855.23,239.81s7.56,13.41,12,12.52,11.09-9.59,8.85-13.18-8.74-6-20.85-2.43C855.28,236.72,853.61,237.46,855.23,239.81Z"/><path class="cls-10" d="M854.48,233.59c-1.17.15,1.14-4.9,2.48-7.22s2.64-5.63,5.65-6.1c2.42-.38,4,1.22,3.11,2.89S857.2,233.24,854.48,233.59Z"/><path class="cls-10" d="M856.17,234.35c-1.23,0,2.85-3.84,5.44-4.63s11.52-1.62,12.25-.29-.58,3.39-1.47,3.74-3.89-.39-5.26-.66a25.51,25.51,0,0,0-8,.69C857.43,233.81,856.73,234.35,856.17,234.35Z"/><path class="cls-10" d="M873.76,225.43c.77.42,1.24,2.68,0,3.07s-4.21-.5-6.28-.31-5.41,1.25-5.35.56,1.55-2.5,4.31-3S873,225,873.76,225.43Z"/><path class="cls-10" d="M873.78,221.85c.85.15,1.57,2,.42,2.7s-3-.29-4.32,0-4.44,1.34-4.6,1.07.13-1.32,2.67-2.45A11.44,11.44,0,0,1,873.78,221.85Z"/><path class="cls-10" d="M874.39,218.67c1,.27.93,2.17,0,2.52s-5,.44-6.44,1.41-1.68-.11-1-.79S872.36,218.13,874.39,218.67Z"/><path class="cls-11" d="M874.63,214.07c.68.07.4,1,.37,2s.54,1.8-.56,1.89a34.84,34.84,0,0,0-7.36,2.65c-.59.54-1.79.22-1.28-.76S871.33,213.73,874.63,214.07Z"/><path class="cls-11" d="M875.65,209.8c.58,0-.18.88-.57,1.41s-.06,1.15-.62,1.65-6.78,3.78-9,5.83a1.33,1.33,0,0,1-2.35-1.14C863.46,216.3,867.85,210.19,875.65,209.8Z"/><path class="cls-9" d="M860.4,247.46l.1.14c0-.1,0-.19,0-.28a16,16,0,0,0-.32-2l-1-3.59c.51.26,1.08.54,1.68.82.63.62,1.26,1.24,1.92,1.83a19.83,19.83,0,0,0,2.11,1.73,6.31,6.31,0,0,1,1.92,1.82c.54.7,1,1.42,1.5,2.14-.44-.74-.91-1.47-1.42-2.18a6.22,6.22,0,0,0-1.87-1.92,16.2,16.2,0,0,1-2-1.77c-.43-.41-.84-.84-1.25-1.27a7.15,7.15,0,0,0,4,.73,1.45,1.45,0,0,0,.57-.28c.84.66,1.69,1.29,2.59,1.89a7.35,7.35,0,0,0,1.55.81,2.38,2.38,0,0,1,1.22,1.07,2.33,2.33,0,0,0-1.19-1.14,7.9,7.9,0,0,1-1.45-.88c-.87-.64-1.69-1.33-2.49-2a1.32,1.32,0,0,0,.12-.2,3.44,3.44,0,0,0,.29-1.11,34.05,34.05,0,0,1,3.75.49,16.52,16.52,0,0,1,1.87.48,5.69,5.69,0,0,1,1.72.82,5.77,5.77,0,0,0-1.68-.9,14.77,14.77,0,0,0-1.86-.56,30.85,30.85,0,0,0-3.8-.67,1.79,1.79,0,0,0-.72-1.14.77.77,0,0,1-.27-.28h0c1.23-.18,2.49-.31,3.74-.43l4.17-.37c-1.39.05-2.79.12-4.19.2s-2.74.15-4.13.31a19,19,0,0,0-3.87-1.24c.74-.19,1.5-.39,2.24-.62.49-.14,1-.28,1.45-.44a11.81,11.81,0,0,1,1.43-.44c1-.23,2-.4,3-.54a11.07,11.07,0,0,1,3,0,11.12,11.12,0,0,0-3,0,25.43,25.43,0,0,0-3,.46,13,13,0,0,0-1.46.39c-.49.15-1,.28-1.46.41-1,.26-1.95.49-2.93.72a8.11,8.11,0,0,0-3.18-.1,1.56,1.56,0,0,0-.7.37.82.82,0,0,0-.22.73,3.76,3.76,0,0,0,2,2.11l1.25,3.89a15.61,15.61,0,0,1,.42,2A.69.69,0,0,1,860.4,247.46Zm-3.26-8.19a.49.49,0,0,1,.12-.45,1.22,1.22,0,0,1,.52-.28c2.16-.59,7.49,1.25,7.77,1.61a1.41,1.41,0,0,0,.36.38c.42.36,1,.81.34,2.21a.94.94,0,0,1-.67.56c-1.62.45-5.14-1.33-6.59-2.12C858,240.62,857.23,239.86,857.14,239.27Z"/><path class="cls-9" d="M865.13,251.78a20.53,20.53,0,0,0,3.12-.77c1-.16,1.69-.43,2-1.31s.29-.72,1.19-1.3a2.65,2.65,0,0,0,1.37-2.21,2.77,2.77,0,0,1,1.12-2c.61-.61.87-.37.35-1.55a2,2,0,0,1,0-2.22,1.42,1.42,0,0,0-.29-1.84,2.62,2.62,0,0,1-.87-1.7.88.88,0,0,0-.37-.62,7.87,7.87,0,0,1,3.35,2.85c2.24,3.59-4.35,12.29-8.85,13.18a3.34,3.34,0,0,1-2.28-.52A.5.5,0,0,1,865.13,251.78Z"/><path class="cls-9" d="M855.23,239.81c-1.62-2.35,0-3.09,0-3.09A36.47,36.47,0,0,1,866.89,235c-1.3-.09-7.87,1.13-8.87,1.76-.68.44-1,.53-.95,1.51,0,.79-.56.49-.66,2s1.78,4.18,2,4.54C856.56,242.17,855.23,239.81,855.23,239.81Z"/><path class="cls-9" d="M871.05,237.8a.59.59,0,0,0,.74.28.47.47,0,0,0,.34-.64.61.61,0,0,0-.75-.28A.47.47,0,0,0,871.05,237.8Z"/><path class="cls-9" d="M872.47,241a.6.6,0,0,0,.74.29.48.48,0,0,0,.33-.65.6.6,0,0,0-.75-.28A.47.47,0,0,0,872.47,241Z"/><path class="cls-9" d="M871.74,244.13a.61.61,0,0,0,.75.28.47.47,0,0,0,.33-.64.61.61,0,0,0-.75-.28A.48.48,0,0,0,871.74,244.13Z"/><path class="cls-9" d="M870.79,247a.39.39,0,0,0,.49.18.31.31,0,0,0,.22-.41.41.41,0,0,0-.49-.19A.32.32,0,0,0,870.79,247Z"/><path class="cls-9" d="M852.13,241.72a25.27,25.27,0,0,0,2.86,7.45c2,3,3.33,4.83,4.43,4.47l-5.61-12.48Z"/><path class="cls-9" d="M855.49,240.6a26.07,26.07,0,0,1,3.7,7.17c.86,3.32,1.32,5.5.23,5.87l-5.61-12.48Z"/><path class="cls-9" d="M852.32,233.82a1.41,1.41,0,0,1-1,1.88,1.79,1.79,0,0,1-2.19-.83,1.4,1.4,0,0,1,1-1.88A1.77,1.77,0,0,1,852.32,233.82Z"/><path class="cls-9" d="M851.15,235.08a25.31,25.31,0,0,0-2.21-2.77,23.59,23.59,0,0,0-2.61-2.48,15.9,15.9,0,0,0-3.1-2,10.35,10.35,0,0,0-3.58-1c-.17,0-.29-.14-.27-.28a.29.29,0,0,1,.32-.23h0a10.73,10.73,0,0,1,3.74,1.2,16.05,16.05,0,0,1,3.08,2.13,23.67,23.67,0,0,1,2.53,2.58A26,26,0,0,1,851.15,235.08Z"/><path class="cls-9" d="M851,235.13a23.73,23.73,0,0,1-.55-3.34,18.74,18.74,0,0,1,0-3.35,11.86,11.86,0,0,1,.74-3.26,7.72,7.72,0,0,1,1.85-2.83.23.23,0,0,0,0-.36.35.35,0,0,0-.42,0h0a8.08,8.08,0,0,0-1.85,3,12.84,12.84,0,0,0-.61,3.36,20,20,0,0,0,.15,3.37A20.31,20.31,0,0,0,851,235.13Z"/><path class="cls-9" d="M853.1,234.85a1.83,1.83,0,0,0-2.15,0,1.58,1.58,0,0,0-1.55,1.28c-.19,1.26-.94,2.51,2.73,5.64a2.6,2.6,0,0,0,2,.07,2.15,2.15,0,0,0,1.4-1.19C855.77,236.17,854.23,235.67,853.1,234.85Z"/><path class="cls-9" d="M1027.07,96.62s3.34-19.58-10.36-27.26-9.8,6.22-9.61,7.81-2.69,12,1,14.82,17.07,6.1,17.07,6.1Z"/><path class="cls-10" d="M1023.84,100.91s-10.56,11.7-14.73,10-8.49-11.29-5.46-14.4,9.93-4.25,20.88,1.34C1024.53,97.89,1026,98.9,1023.84,100.91Z"/><path class="cls-10" d="M1026.05,95c1.1.35,0-5-.71-7.45s-1.21-6-4-7c-2.26-.79-4.16.49-3.72,2.27S1023.49,94.16,1026.05,95Z"/><path class="cls-10" d="M1024.21,95.43c1.2.22-1.85-4.25-4.17-5.48s-10.81-3.6-11.86-2.45-.24,3.4.54,3.9,3.88.31,5.28.29a24.74,24.74,0,0,1,7.63,2.08A21.77,21.77,0,0,0,1024.21,95.43Z"/><path class="cls-10" d="M1009.24,83.63c-.86.27-1.84,2.4-.75,3s4.22.26,6.18.82,5,2.18,5.07,1.49-.9-2.71-3.46-3.7S1010.09,83.35,1009.24,83.63Z"/><path class="cls-10" d="M1010.08,80.14c-.87,0-2,1.68-1.07,2.56s3,.24,4.2.72,4,2.08,4.25,1.86.17-1.31-2-2.86A10.82,10.82,0,0,0,1010.08,80.14Z"/><path class="cls-10" d="M1010.24,76.93c-1.06.09-1.42,2-.63,2.46s4.75,1.31,5.92,2.52,1.66.18,1.15-.6S1012.34,76.77,1010.24,76.93Z"/><path class="cls-11" d="M1011.1,72.42c-.67,0-.64.92-.85,1.89s-.94,1.65.1,1.94a31.84,31.84,0,0,1,6.52,3.88c.45.63,1.7.53,1.44-.52S1014.39,72.67,1011.1,72.42Z"/><path class="cls-11" d="M1011.12,68.08c-.55-.12,0,.89.22,1.48s-.21,1.13.21,1.72,5.7,4.88,7.34,7.27c1.17,1.7,2.57.16,2.57-.71C1021.44,76.56,1018.62,69.84,1011.12,68.08Z"/><path class="cls-9" d="M1017,107.31a17,17,0,0,1,.88-1.88l2.14-3.57a4.07,4.07,0,0,0,2.42-1.7.76.76,0,0,0,0-.76,1.55,1.55,0,0,0-.59-.49,8.38,8.38,0,0,0-3.12-.46c-.9-.39-1.8-.8-2.67-1.22-.45-.2-.89-.41-1.32-.65s-.88-.45-1.33-.64a26.4,26.4,0,0,0-2.84-1,10.64,10.64,0,0,0-3-.52,10.74,10.74,0,0,1,2.94.59,28,28,0,0,1,2.78,1,13.24,13.24,0,0,1,1.29.68c.42.24.85.47,1.3.69.65.35,1.35.68,2,1a18.78,18.78,0,0,0-4.07.51c-1.3-.39-2.62-.7-3.94-1s-2.68-.63-4-.93c1.33.36,2.65.72,4,1.1s2.38.69,3.54,1.08h0a.93.93,0,0,1-.33.22,1.85,1.85,0,0,0-1,1,30.93,30.93,0,0,0-3.85,0,16.49,16.49,0,0,0-2,.22,6.07,6.07,0,0,0-1.84.57,6.53,6.53,0,0,1,1.87-.49c.64-.08,1.29-.12,2-.14a36.08,36.08,0,0,1,3.75.19,3.09,3.09,0,0,0,0,1.13,1.19,1.19,0,0,0,.07.23c-.94.53-1.9,1-2.91,1.51a8,8,0,0,1-1.62.6,2.44,2.44,0,0,0-1.42.9,2.56,2.56,0,0,1,1.45-.82,8.84,8.84,0,0,0,1.68-.52c1-.42,2-.89,3-1.38a1.31,1.31,0,0,0,.48.38,7.25,7.25,0,0,0,4,0c-.5.34-1,.7-1.51,1a23.38,23.38,0,0,1-2.39,1.36,6.72,6.72,0,0,0-2.29,1.53c-.66.6-1.29,1.22-1.9,1.88.64-.63,1.29-1.25,2-1.82a7,7,0,0,1,2.3-1.44,22.44,22.44,0,0,0,2.48-1.31c.78-.47,1.54-1,2.3-1.45.65-.15,1.28-.33,1.82-.49l-1.79,3.33a12.77,12.77,0,0,0-.8,1.92,1.61,1.61,0,0,0-.09.26.45.45,0,0,1,.13-.1A.39.39,0,0,1,1017,107.31Zm2.82-5.75c-1.6.52-5.46,1.62-6.92.9a.87.87,0,0,1-.52-.65c-.26-1.48.36-1.82.86-2.1a1.29,1.29,0,0,0,.44-.32c.37-.28,6-1.13,7.94-.18a.92.92,0,0,1,.44.36.47.47,0,0,1,0,.46A3.74,3.74,0,0,1,1019.85,101.56Z"/><path class="cls-9" d="M1011.34,110.79a22.52,22.52,0,0,1-2.85-1.29c-1-.34-1.55-.72-1.67-1.63s-.1-.77-.85-1.48a2.53,2.53,0,0,1-.8-2.41,2.59,2.59,0,0,0-.63-2.09c-.45-.71-.75-.52,0-1.58s.73-1.49.52-2.15a1.49,1.49,0,0,1,.74-1.75,2.83,2.83,0,0,0,1.25-1.5,1,1,0,0,1,.5-.53,8.65,8.65,0,0,0-3.94,2.17c-3,3.11,1.31,12.74,5.46,14.4a3.62,3.62,0,0,0,2.35-.1Z"/><path class="cls-9" d="M1023.84,100.91c2.13-2,.69-3,.69-3a35,35,0,0,0-10.89-3.73c1.29.13,7.39,2.49,8.2,3.28.57.54.83.67.56,1.64-.19.75.44.57.16,2.1s-2.72,3.75-3.06,4C1022,103,1023.84,100.91,1023.84,100.91Z"/><path class="cls-9" d="M1008.92,96.14a.62.62,0,0,1-.8.15.45.45,0,0,1-.16-.68.62.62,0,0,1,.8-.14A.44.44,0,0,1,1008.92,96.14Z"/><path class="cls-9" d="M1006.78,99a.62.62,0,0,1-.79.15.48.48,0,0,1-.17-.69.67.67,0,0,1,.81-.15A.46.46,0,0,1,1006.78,99Z"/><path class="cls-9" d="M1006.73,102.18a.63.63,0,0,1-.79.15.47.47,0,0,1-.17-.7.65.65,0,0,1,.8-.13A.45.45,0,0,1,1006.73,102.18Z"/><path class="cls-9" d="M1007,105.18a.41.41,0,0,1-.51.09.28.28,0,0,1-.11-.44.42.42,0,0,1,.52-.1A.29.29,0,0,1,1007,105.18Z"/><path class="cls-9" d="M1030.21,98.39s19.45-10.57,33.15-2.89-2.63,10.25-4.4,10.73-11.6,7-16.16,5.21-13.38-11-13.38-11Z"/><path class="cls-10" d="M1027,102.67s-8.16,13-4.71,15.65,15.44,2.12,17.5-1.52.5-9.55-9.86-15.89C1029.91,100.91,1028.25,100.18,1027,102.67Z"/><path class="cls-10" d="M1032.37,98.53c-.82-.73,5.26-2.06,8.19-2.47s6.84-1.45,9,.37c1.75,1.45,1.16,3.47-.91,3.85S1034.29,100.22,1032.37,98.53Z"/><path class="cls-10" d="M1032.65,100.15c-.73-.85,5.26-.25,7.5,1.07s8.21,7.07,7.4,8.35-3.51,1.56-4.37,1.14-1.88-2.92-2.44-4a20,20,0,0,0-5.29-5.18C1033.88,100.71,1033,100.53,1032.65,100.15Z"/><path class="cls-10" d="M1051.23,107.16c.06.79-1.79,2.43-2.85,1.79s-2-3.19-3.37-4.53-4.33-3-3.64-3.38,3.24-.38,5.32,1.23S1051.18,106.38,1051.23,107.16Z"/><path class="cls-10" d="M1054.6,105.09c.35.7-1,2.27-2.29,1.88s-1.45-2.23-2.47-3-3.83-2.31-3.69-2.58,1.33-.67,3.87.42S1054.13,104.18,1054.6,105.09Z"/><path class="cls-10" d="M1057.93,103.67c.34.88-1.49,1.92-2.34,1.49s-3.31-3.21-5.08-3.64-.86-1.24.18-1.16S1057.26,102,1057.93,103.67Z"/><path class="cls-11" d="M1062.39,101.17c.32.5-.71.87-1.66,1.43s-1.38,1.41-2.13.7a32.38,32.38,0,0,0-6.74-3.56c-.86-.1-1.24-1.12,0-1.34S1060.79,98.68,1062.39,101.17Z"/><path class="cls-11" d="M1067,99.39c.34.39-.94.39-1.67.43s-1.11.63-1.91.53-7.48-2.51-10.68-2.84c-2.29-.24-1.22-2-.3-2.3C1053.79,94.71,1062.07,94.19,1067,99.39Z"/><path class="cls-9" d="M1022.82,110.7c0,.07,0,.11-.05.16a1.5,1.5,0,0,1,.24-.18,21.35,21.35,0,0,0,1.71-1.41l2.81-2.76c0,.49.11,1.06.2,1.64-.21.79-.41,1.59-.59,2.4a13.67,13.67,0,0,0-.39,2.47,5.16,5.16,0,0,1-.6,2.39,24.23,24.23,0,0,1-1.14,2.28,22.35,22.35,0,0,0,1.23-2.25,5.4,5.4,0,0,0,.7-2.41,14.85,14.85,0,0,1,.49-2.44c.13-.54.3-1.08.47-1.6a5.1,5.1,0,0,0,1.6,3.17,1.51,1.51,0,0,0,.6.22,28.65,28.65,0,0,0-.26,2.9,5.43,5.43,0,0,0,.14,1.55,1.94,1.94,0,0,1-.29,1.47,2.05,2.05,0,0,0,.39-1.49,5.94,5.94,0,0,1,0-1.52c.08-1,.27-1.94.44-2.89l.27,0a4.68,4.68,0,0,0,1.21-.45,24.91,24.91,0,0,1,1.71,2.89,11.94,11.94,0,0,1,.65,1.58,4.36,4.36,0,0,1,.23,1.67,4.2,4.2,0,0,0-.14-1.69,11.44,11.44,0,0,0-.55-1.62,24.32,24.32,0,0,0-1.59-3,1.69,1.69,0,0,0,.65-1.16,1,1,0,0,1,.1-.36h0c.89.75,1.74,1.54,2.58,2.34l2.78,2.68c-.86-.94-1.74-1.87-2.62-2.79s-1.75-1.82-2.71-2.68a12.13,12.13,0,0,0-1.09-3.42c.62.4,1.24.81,1.89,1.2.4.26.83.5,1.25.74s.85.47,1.26.73c.77.55,1.52,1.15,2.23,1.77a8.73,8.73,0,0,1,1.82,2.08,9.08,9.08,0,0,0-1.74-2.14,23,23,0,0,0-2.2-1.83,14.13,14.13,0,0,0-1.22-.79c-.41-.25-.83-.51-1.22-.77-.81-.53-1.6-1.06-2.37-1.62a6.35,6.35,0,0,0-1.76-2.27,1.86,1.86,0,0,0-.76-.26,1.08,1.08,0,0,0-.81.27,3.26,3.26,0,0,0-.83,2.6l-2.92,3.13a19.07,19.07,0,0,1-1.64,1.45Zm5.77-7a.72.72,0,0,1,.51-.2,1.42,1.42,0,0,1,.56.22c1.81,1.15,3.18,5.9,3,6.31a1,1,0,0,0-.15.48c-.1.51-.21,1.13-1.88,1.53a1.07,1.07,0,0,1-.91-.15c-1.36-.86-1.75-4.35-1.84-5.8A3,3,0,0,1,1028.59,103.69Z"/><path class="cls-9" d="M1021.53,116.51a20.55,20.55,0,0,0,2.53,1.71,2.36,2.36,0,0,0,2.42.65c1-.27.86-.21,1.92.08a3.61,3.61,0,0,0,2.86-.34,3.8,3.8,0,0,1,2.49-.35c.93.07.86.38,1.66-.68a2.58,2.58,0,0,1,2.07-1.28A1.73,1.73,0,0,0,1039,115a2.76,2.76,0,0,1,1.09-1.58.9.9,0,0,0,.36-.62,6.36,6.36,0,0,1-.71,4c-2.06,3.64-14,4.12-17.5,1.52a2.45,2.45,0,0,1-.85-1.89A.44.44,0,0,1,1021.53,116.51Z"/><path class="cls-9" d="M1027,102.67c1.27-2.49,2.93-1.76,2.93-1.76a30,30,0,0,1,8.37,7.06c-.68-1-5.65-4.82-6.81-5.14a1.78,1.78,0,0,0-2,.22c-.73.48-.79-.11-2.3.73s-2.88,3.66-3.07,4C1025.55,105,1027,102.67,1027,102.67Z"/><path class="cls-9" d="M1038.06,112.49a.47.47,0,0,0,.17.68.64.64,0,0,0,.81-.15.46.46,0,0,0-.19-.69A.64.64,0,0,0,1038.06,112.49Z"/><path class="cls-9" d="M1035.94,115.3a.45.45,0,0,0,.17.69.63.63,0,0,0,.79-.15.45.45,0,0,0-.16-.68A.62.62,0,0,0,1035.94,115.3Z"/><path class="cls-9" d="M1032.54,116.65a.45.45,0,0,0,.17.68.65.65,0,0,0,.8-.14.46.46,0,0,0-.17-.69A.63.63,0,0,0,1032.54,116.65Z"/><path class="cls-9" d="M1029.27,117.68a.29.29,0,0,0,.1.44.4.4,0,0,0,.51-.09.29.29,0,0,0-.09-.45A.42.42,0,0,0,1029.27,117.68Z"/><path class="cls-9" d="M1023.4,101.62a28.71,28.71,0,0,0-5.33,6.33c-1.62,3.07-2.59,5.12-1.6,5.66l8.43-11.14Z"/><path class="cls-9" d="M1026.4,103.3a26.91,26.91,0,0,1-4.57,6.75c-2.61,2.52-4.39,4.12-5.36,3.56l8.43-11.14Z"/><path class="cls-9" d="M1030.91,97.16a1.84,1.84,0,0,1-2.32.42,1.33,1.33,0,0,1-.51-2,1.86,1.86,0,0,1,2.34-.43A1.34,1.34,0,0,1,1030.91,97.16Z"/><path class="cls-9" d="M1029,97.09a23.94,23.94,0,0,0,1.33-3.15,19.63,19.63,0,0,0,.8-3.26,12.25,12.25,0,0,0,.07-3.31,7.14,7.14,0,0,0-1.15-3.08.24.24,0,0,1,.11-.34.31.31,0,0,1,.39.08,0,0,0,0,0,0,0,7.33,7.33,0,0,1,1.06,3.3,12,12,0,0,1-.2,3.38,19.5,19.5,0,0,1-1,3.25A21.57,21.57,0,0,1,1029,97.09Z"/><path class="cls-9" d="M1028.94,97a28.27,28.27,0,0,1,2.79-2.31,25.82,25.82,0,0,1,3.15-1.94,17.35,17.35,0,0,1,3.47-1.39,10.62,10.62,0,0,1,3.75-.36.25.25,0,1,0,.06-.5h0a11.07,11.07,0,0,0-3.94.5,16.56,16.56,0,0,0-3.49,1.53,25.48,25.48,0,0,0-3.08,2.07A25,25,0,0,0,1028.94,97Z"/><path class="cls-9" d="M1030.4,98.3a1.45,1.45,0,0,0-1.21-1.51,1.76,1.76,0,0,0-2.1-.34c-1.3.6-2.9.81-3.69,5.17a1.88,1.88,0,0,0,1.07,1.4,2.61,2.61,0,0,0,1.93.28C1030.72,100.91,1030.28,99.56,1030.4,98.3Z"/><path class="cls-9" d="M1090.87,149.1s-10.69-12-22.91-9.67-1.28,8-.16,8.72,6.18,7.66,10,7.44,13-4.81,13-4.81Z"/><path class="cls-10" d="M1091.88,152.92s1.83,11.25-1.46,12.33-11.74-2-12.1-5.11,2.59-7,12-9.16C1090.33,151,1091.74,150.84,1091.88,152.92Z"/><path class="cls-10" d="M1089.28,148.71c.82-.33-3.13-2.68-5.13-3.65s-4.44-2.6-6.58-1.81c-1.72.65-1.91,2.23-.54,3S1087.39,149.49,1089.28,148.71Z"/><path class="cls-10" d="M1088.59,149.82c.78-.45-3.7-1.4-5.73-1s-8.07,3.19-7.89,4.3,2,1.93,2.77,1.83,2.27-1.67,3-2.34a18,18,0,0,1,5.4-2.5A17.11,17.11,0,0,0,1088.59,149.82Z"/><path class="cls-10" d="M1073.07,150.59c-.29.55.54,2.16,1.49,1.95s2.43-1.85,3.83-2.49,4-1.18,3.66-1.6a4.77,4.77,0,0,0-4.22-.34C1075.85,148.8,1073.34,150,1073.07,150.59Z"/><path class="cls-10" d="M1071.29,148.34c-.46.4,0,1.84,1.06,1.87s1.73-1.28,2.7-1.6,3.48-.79,3.46-1-.74-.78-2.9-.58A8.33,8.33,0,0,0,1071.29,148.34Z"/><path class="cls-10" d="M1069.32,146.54c-.5.55.5,1.72,1.23,1.61s3.38-1.54,4.77-1.45,1-.69.24-.87S1070.34,145.46,1069.32,146.54Z"/><path class="cls-11" d="M1066.91,143.73c-.4.29.24.79.75,1.4s.55,1.33,1.29,1a27.41,27.41,0,0,1,6-1c.64.12,1.25-.53.43-1S1068.83,142.31,1066.91,143.73Z"/><path class="cls-11" d="M1064.15,141.39c-.38.2.55.5,1.07.69s.6.7,1.2.82,6.16-.09,8.56.41c1.71.36,1.48-1.12.92-1.59A13.34,13.34,0,0,0,1064.15,141.39Z"/><path class="cls-9" d="M1092.33,159.56a11.23,11.23,0,0,1-.73-1.42l-1.13-2.91a2.44,2.44,0,0,0,.21-2.06.73.73,0,0,0-.5-.39,1.51,1.51,0,0,0-.63,0,5.47,5.47,0,0,0-2,1.23c-.73.21-1.47.42-2.21.61-.37.11-.73.19-1.11.27s-.77.18-1.13.29a20.86,20.86,0,0,0-2.13.82,7.31,7.31,0,0,0-1.92,1.13,8,8,0,0,1,1.94-1.08,21.16,21.16,0,0,1,2.16-.74,10.14,10.14,0,0,1,1.12-.26q.57-.1,1.14-.24l1.72-.42a10.38,10.38,0,0,0-1.84,2.19c-.95.41-1.86.87-2.77,1.31s-1.84.93-2.75,1.41q1.41-.66,2.82-1.29c.86-.38,1.72-.75,2.59-1.09h0a.55.55,0,0,1,0,.27,1.2,1.2,0,0,0,.1,1,18,18,0,0,0-2.07,1.81,11.29,11.29,0,0,0-.91,1,3.43,3.43,0,0,0-.62,1.18,3.76,3.76,0,0,1,.68-1.15,12.73,12.73,0,0,1,1-1,23.35,23.35,0,0,1,2.12-1.68,2.85,2.85,0,0,0,.74.6l.17.09a21.25,21.25,0,0,1-.58,2.18,4.41,4.41,0,0,1-.48,1.09,1.43,1.43,0,0,0-.19,1.15,1.47,1.47,0,0,1,.25-1.12,4.66,4.66,0,0,0,.57-1.08c.28-.7.5-1.42.71-2.14a1.07,1.07,0,0,0,.5,0,4.47,4.47,0,0,0,2.14-1.91l-.15,1.27a14.53,14.53,0,0,1-.41,1.85,3.87,3.87,0,0,0-.25,1.9c0,.64.09,1.27.18,1.91-.06-.64-.11-1.28-.11-1.91a4.15,4.15,0,0,1,.31-1.85,10.75,10.75,0,0,0,.49-1.87c.12-.62.22-1.24.31-1.87.25-.38.48-.78.66-1.12l1.16,2.63a11.47,11.47,0,0,0,.8,1.4,1.4,1.4,0,0,0,.12.18.48.48,0,0,1,0-.12A.41.41,0,0,1,1092.33,159.56Zm-2.16-4.4c-.53,1-1.88,3.45-3.12,3.75a.9.9,0,0,1-.7-.1c-1.08-.67-1-1.14-.87-1.53a1,1,0,0,0,0-.38c0-.32,2.47-3.43,4.13-3.85a.92.92,0,0,1,.46,0,.48.48,0,0,1,.3.24A2.22,2.22,0,0,1,1090.17,155.16Z"/><path class="cls-9" d="M1091.51,164.12a17,17,0,0,1-2.35.65,1.9,1.9,0,0,1-1.93-.08c-.65-.43-.55-.37-1.4-.39a2.58,2.58,0,0,1-2-.91,2.72,2.72,0,0,0-1.67-.82c-.69-.16-.73.07-1-.86a1.71,1.71,0,0,0-1.09-1.4,1.2,1.2,0,0,1-.72-1.28,1.89,1.89,0,0,0-.29-1.39.62.62,0,0,1-.07-.52,4.88,4.88,0,0,0-.72,3c.36,3.09,8.82,6.19,12.1,5.11a2.17,2.17,0,0,0,1.19-1.16A.19.19,0,0,0,1091.51,164.12Z"/><path class="cls-9" d="M1091.88,152.92c-.14-2.08-1.55-1.94-1.55-1.94a26.32,26.32,0,0,0-8.2,3.16,26.33,26.33,0,0,1,6.48-2.13c.64,0,.87,0,1.34.61s.6.1,1.42,1,1,3.29,1,3.61C1092.19,154.9,1091.88,152.92,1091.88,152.92Z"/><path class="cls-9" d="M1080.88,157.43a.37.37,0,0,1-.34.45.44.44,0,0,1-.52-.28.38.38,0,0,1,.34-.46A.45.45,0,0,1,1080.88,157.43Z"/><path class="cls-9" d="M1081.53,160a.37.37,0,0,1-.33.45.46.46,0,0,1-.53-.29.4.4,0,0,1,.34-.46A.44.44,0,0,1,1081.53,160Z"/><path class="cls-9" d="M1083.55,161.69a.36.36,0,0,1-.32.45.46.46,0,0,1-.54-.28.41.41,0,0,1,.34-.46A.45.45,0,0,1,1083.55,161.69Z"/><path class="cls-9" d="M1085.59,163.19a.25.25,0,0,1-.21.29.28.28,0,0,1-.34-.19.25.25,0,0,1,.21-.3A.3.3,0,0,1,1085.59,163.19Z"/><path class="cls-9" d="M1093.69,148.56s3.65-14.84,15.86-17.21,5.13,6.72,4.5,7.81-1.76,9.21-5.32,10.42-14.14.47-14.14.47Z"/><path class="cls-10" d="M1094.69,152.38s4,10.83,7.47,10.59,9.59-6.17,8.37-9.09-5.82-5.34-15.4-3.83C1095.13,150.05,1093.78,150.45,1094.69,152.38Z"/><path class="cls-10" d="M1094.93,147.62c-.91,0,1.5-3.59,2.8-5.19s2.73-4,5.06-4.08c1.87,0,2.83,1.31,2,2.49S1097,147.62,1094.93,147.62Z"/><path class="cls-10" d="M1096.11,148.35c-.93-.11,2.65-2.62,4.69-3s8.9-.11,9.28,1-.88,2.5-1.6,2.68-2.88-.67-3.87-1a19.08,19.08,0,0,0-6.14-.26A16,16,0,0,1,1096.11,148.35Z"/><path class="cls-10" d="M1110.51,143.32c.53.39.59,2.14-.38,2.3s-3.1-.77-4.69-.83-4.24.43-4.11-.08,1.5-1.74,3.64-1.86S1110,142.92,1110.51,143.32Z"/><path class="cls-10" d="M1111,140.62a1.21,1.21,0,0,1,0,2.08c-1,.42-2.2-.51-3.25-.44s-3.52.57-3.62.36.29-1,2.34-1.6A8.93,8.93,0,0,1,1111,140.62Z"/><path class="cls-10" d="M1111.87,138.28c.74.31.42,1.73-.31,1.9s-3.81-.14-5,.46-1.26-.26-.64-.7S1110.41,137.68,1111.87,138.28Z"/><path class="cls-11" d="M1112.65,134.84c.5.11.17.8,0,1.54s.16,1.41-.69,1.39a26.94,26.94,0,0,0-5.88,1.28c-.52.35-1.37,0-.87-.7S1110.21,134.26,1112.65,134.84Z"/><path class="cls-11" d="M1114,131.71c.43,0-.26.65-.62,1s-.19.86-.68,1.19-5.61,2.19-7.52,3.53c-1.38,1-1.9-.47-1.63-1.09C1103.94,135.45,1108,131.26,1114,131.71Z"/><path class="cls-9" d="M1097.59,158.64l.07.1a1.41,1.41,0,0,1,0-.2,11.75,11.75,0,0,0,0-1.57l-.26-2.8c.33.24.74.52,1.15.78.4.53.79,1.05,1.22,1.57a12.81,12.81,0,0,0,1.37,1.5,4.6,4.6,0,0,1,1.21,1.56c.31.58.59,1.16.84,1.76a13.53,13.53,0,0,0-.79-1.79,4.45,4.45,0,0,0-1.16-1.62,13.39,13.39,0,0,1-1.29-1.53c-.27-.35-.53-.72-.77-1.08a5.25,5.25,0,0,0,2.88.94,1.56,1.56,0,0,0,.46-.16c.55.58,1.11,1.14,1.71,1.67a5.82,5.82,0,0,0,1.06.76,1.67,1.67,0,0,1,.78.92,1.64,1.64,0,0,0-.74-1,5.93,5.93,0,0,1-1-.81c-.57-.55-1.09-1.16-1.61-1.75l.12-.15a2.49,2.49,0,0,0,.36-.81,26.1,26.1,0,0,1,2.76.74,11.51,11.51,0,0,1,1.35.54,4.09,4.09,0,0,1,1.19.78,4.06,4.06,0,0,0-1.15-.84,12.26,12.26,0,0,0-1.33-.6,24.21,24.21,0,0,0-2.78-.87,1.26,1.26,0,0,0-.39-.93,1,1,0,0,1-.18-.23h0c1,0,1.91,0,2.88,0l3.19.12-3.18-.25c-1-.07-2.1-.14-3.16-.15a12.71,12.71,0,0,0-2.77-1.31c.59-.08,1.18-.16,1.78-.26.39-.05.77-.12,1.14-.19a9.08,9.08,0,0,1,1.14-.2c.77-.08,1.54-.11,2.32-.12a8.82,8.82,0,0,1,2.3.25,9.32,9.32,0,0,0-2.3-.32,20.15,20.15,0,0,0-2.33.07,11.14,11.14,0,0,0-1.16.15l-1.15.17c-.76.1-1.53.18-2.3.25a6.5,6.5,0,0,0-2.38-.38,1.33,1.33,0,0,0-.58.22.62.62,0,0,0-.25.53,2.67,2.67,0,0,0,1.21,1.78l.43,3a11.54,11.54,0,0,1,.06,1.55A.49.49,0,0,0,1097.59,158.64Zm-1.4-6.48a.41.41,0,0,1,.16-.34,1.13,1.13,0,0,1,.44-.16c1.69-.23,5.46,1.66,5.63,2a.83.83,0,0,0,.23.32c.27.32.6.7,0,1.7a.75.75,0,0,1-.58.36c-1.28.18-3.71-1.5-4.69-2.23A2.6,2.6,0,0,1,1096.19,152.16Z"/><path class="cls-9" d="M1100.6,162.35a18.17,18.17,0,0,0,2.45-.28,1.75,1.75,0,0,0,1.71-.79c.37-.63.31-.53,1.07-.87a2.13,2.13,0,0,0,1.31-1.53,2.21,2.21,0,0,1,1.11-1.37c.54-.4.71-.2.46-1.15a1.47,1.47,0,0,1,.28-1.66,1.06,1.06,0,0,0,0-1.42,1.83,1.83,0,0,1-.42-1.36.72.72,0,0,0-.21-.51,5.72,5.72,0,0,1,2.16,2.47c1.22,2.92-4.87,8.84-8.37,9.09a2.54,2.54,0,0,1-1.66-.61Z"/><path class="cls-9" d="M1094.69,152.38c-.91-1.93.44-2.33.44-2.33a28.33,28.33,0,0,1,9-.18,27.77,27.77,0,0,0-6.92.47c-.57.27-.8.3-.91,1s-.5.31-.76,1.47.79,3.32.93,3.61C1095.39,154.29,1094.69,152.38,1094.69,152.38Z"/><path class="cls-9" d="M1106.87,152.39a.47.47,0,0,0,.53.28.38.38,0,0,0,.33-.46.44.44,0,0,0-.54-.28A.39.39,0,0,0,1106.87,152.39Z"/><path class="cls-9" d="M1107.53,154.9a.44.44,0,0,0,.53.28.39.39,0,0,0,.33-.46.45.45,0,0,0-.52-.28A.38.38,0,0,0,1107.53,154.9Z"/><path class="cls-9" d="M1106.58,157.22a.44.44,0,0,0,.51.29.4.4,0,0,0,.35-.46.46.46,0,0,0-.53-.29A.38.38,0,0,0,1106.58,157.22Z"/><path class="cls-9" d="M1105.49,159.32a.29.29,0,0,0,.33.19.25.25,0,0,0,.22-.29.29.29,0,0,0-.34-.2A.25.25,0,0,0,1105.49,159.32Z"/><path class="cls-9" d="M1092.1,153.51a18.69,18.69,0,0,0,1.19,5.9c1.09,2.41,1.89,4,2.76,3.79l-2.6-9.94Z"/><path class="cls-9" d="M1094.78,153a19.24,19.24,0,0,1,1.86,5.77c.21,2.58.29,4.28-.59,4.44l-2.6-9.94Z"/><path class="cls-9" d="M1093.28,147.58a1.12,1.12,0,0,1-1,1.32,1.3,1.3,0,0,1-1.54-.83,1.12,1.12,0,0,1,1-1.33A1.34,1.34,0,0,1,1093.28,147.58Z"/><path class="cls-9" d="M1092.22,148.43a17.52,17.52,0,0,0-3-4.44,12,12,0,0,0-2.07-1.8,7.6,7.6,0,0,0-2.58-1.1.19.19,0,0,1-.16-.24.22.22,0,0,1,.26-.13h0a7.65,7.65,0,0,1,2.67,1.26,11.21,11.21,0,0,1,2,1.9,16.21,16.21,0,0,1,1.57,2.18A17,17,0,0,1,1092.22,148.43Z"/><path class="cls-9" d="M1092.13,148.44a18.22,18.22,0,0,1,0-2.56,14.57,14.57,0,0,1,.44-2.53,10.09,10.09,0,0,1,1-2.38,6.27,6.27,0,0,1,1.78-2,.18.18,0,0,0,0-.27.26.26,0,0,0-.32,0h0a6.58,6.58,0,0,0-1.79,2.13,9.38,9.38,0,0,0-.89,2.47,16.58,16.58,0,0,0-.24,5.13Z"/><path class="cls-9" d="M1093.73,148.42a1.4,1.4,0,0,0-1.62-.23,1.26,1.26,0,0,0-1.33.82c-.31.93-1,1.8,1.32,4.5a2,2,0,0,0,1.47.25,1.71,1.71,0,0,0,1.21-.77C1095.56,149.67,1094.47,149.16,1093.73,148.42Z"/><path class="cls-5" d="M490.22,194.78c-4.34,3.64-8.9,13.38-4.67,17.11s15.64.05,20-3.59a8.56,8.56,0,0,0,.19-13.35A12.26,12.26,0,0,0,490.22,194.78Z"/><path class="cls-5" d="M506.24,212c-5.36-2.43-17.53-3.16-20.35,1.45s4.8,12.83,10.16,15.25,12,.65,14.79-4S511.6,214.39,506.24,212Z"/><path class="cls-5" d="M492.09,230.46c1-5.13-1.93-15.33-7.89-16.2s-12.7,7.88-13.72,13,3,10,8.95,10.89S491.07,235.6,492.09,230.46Z"/><path class="cls-5" d="M467.31,224.47c6-.75,16.33-6.31,15.46-11.47s-12.64-7.94-18.62-7.2-10.14,5.54-9.27,10.69S461.31,225.23,467.31,224.47Z"/><path class="cls-5" d="M466.34,202.44c2.68,4.67,12,11.42,17.44,9.11s4.89-12.79,2.21-17.46-9.25-6.59-14.68-4.28S463.66,197.78,466.34,202.44Z"/><polygon class="cls-6" points="482.64 212.59 484.66 214.37 491.86 208.34 489.83 206.55 482.64 212.59"/><path class="cls-6" d="M490.44,204.14a2.48,2.48,0,0,0-.24,3.84,3.52,3.52,0,0,0,4.46-.12,2.46,2.46,0,0,0,.25-3.83A3.54,3.54,0,0,0,490.44,204.14Z"/><polygon class="cls-6" points="483.95 211.24 482.6 213.45 491.51 217.47 492.85 215.27 483.95 211.24"/><path class="cls-6" d="M495.71,215a3.43,3.43,0,0,0-4.31,1c-.78,1.27-.11,2.88,1.49,3.61a3.47,3.47,0,0,0,4.32-1C498,217.37,497.31,215.74,495.71,215Z"/><polygon class="cls-6" points="485.86 211.91 483 211.49 481.31 220.02 484.16 220.43 485.86 211.91"/><path class="cls-6" d="M485.3,222.69a2.74,2.74,0,0,0-2.42-3.21,3.08,3.08,0,0,0-3.52,2.33,2.76,2.76,0,0,0,2.42,3.24A3.09,3.09,0,0,0,485.3,222.69Z"/><polygon class="cls-6" points="485.71 213.67 485.3 211.2 475.35 212.45 475.77 214.91 485.71 213.67"/><path class="cls-6" d="M473.62,216.55c1.79-.23,3.05-1.56,2.82-3s-1.9-2.39-3.68-2.16-3.06,1.56-2.82,3S471.83,216.78,473.62,216.55Z"/><polygon class="cls-6" points="483.72 214.1 486.32 212.99 481.87 205.23 479.28 206.34 483.72 214.1"/><path class="cls-6" d="M476.8,205.08a3.38,3.38,0,0,0,4.16,1.39,2.53,2.53,0,0,0,1.25-3.68,3.38,3.38,0,0,0-4.15-1.39A2.54,2.54,0,0,0,476.8,205.08Z"/><polygon class="cls-6" points="485.19 211.4 485.45 213.13 492.43 212.35 492.17 210.63 485.19 211.4"/><path class="cls-6" d="M493.7,209.5c-1.27.13-2.17,1.05-2,2.06a2.21,2.21,0,0,0,2.56,1.55,2,2,0,0,0,2-2.06A2.2,2.2,0,0,0,493.7,209.5Z"/><polygon class="cls-6" points="485.33 212.88 483.5 213.63 486.51 219.1 488.34 218.36 485.33 212.88"/><path class="cls-6" d="M490.06,219.25a2.37,2.37,0,0,0-2.9-1,1.78,1.78,0,0,0-.93,2.56,2.37,2.37,0,0,0,2.9,1A1.78,1.78,0,0,0,490.06,219.25Z"/><polygon class="cls-6" points="483.91 213.51 482.52 212.25 477.39 216.4 478.79 217.67 483.91 213.51"/><path class="cls-6" d="M478.33,219.35a1.72,1.72,0,0,0,.22-2.67,2.47,2.47,0,0,0-3.13,0,1.73,1.73,0,0,0-.22,2.68A2.48,2.48,0,0,0,478.33,219.35Z"/><polygon class="cls-6" points="482.65 212.48 483.63 210.94 477.45 208.04 476.48 209.57 482.65 212.48"/><path class="cls-6" d="M474.48,209.71a2.42,2.42,0,0,0,3-.65,1.8,1.8,0,0,0-1-2.54,2.39,2.39,0,0,0-3,.64A1.79,1.79,0,0,0,474.48,209.71Z"/><polygon class="cls-6" points="483.48 211.11 485.48 211.43 486.77 205.48 484.79 205.16 483.48 211.11"/><path class="cls-6" d="M484,203.56a1.93,1.93,0,0,0,1.66,2.28,2.2,2.2,0,0,0,2.51-1.6,1.94,1.94,0,0,0-1.66-2.28A2.2,2.2,0,0,0,484,203.56Z"/><path class="cls-5" d="M475.5,165.21s17.37-10.7-.77-28.6C474.73,136.61,458.65,147.53,475.5,165.21Z"/><path class="cls-5" d="M475.5,165.21s5.93-16.33-17.14-20.24C458.36,145,453.47,160.83,475.5,165.21Z"/><path class="cls-6" d="M437.78,175c-3-1.35-9.78-1.75-11.35.83s2.69,7.15,5.69,8.49a6.63,6.63,0,0,0,8.25-2.22C441.92,179.51,440.78,176.33,437.78,175Z"/><path class="cls-6" d="M430,185.28c.56-2.87-1.1-8.55-4.43-9s-7.07,4.42-7.63,7.28,1.68,5.58,5,6.07S429.43,188.14,430,185.28Z"/><path class="cls-6" d="M416.13,182c3.34-.43,9.11-3.54,8.62-6.41s-7.06-4.43-10.41-4-5.65,3.1-5.15,6S412.8,182.46,416.13,182Z"/><path class="cls-6" d="M415.52,169.68c1.51,2.6,6.73,6.36,9.75,5.06s2.7-7.14,1.2-9.75-5.17-3.66-8.19-2.37S414,167.07,415.52,169.68Z"/><path class="cls-6" d="M428.92,165.42c-2.41,2-4.95,7.47-2.59,9.54s8.73,0,11.14-2a4.75,4.75,0,0,0,.09-7.44A6.8,6.8,0,0,0,428.92,165.42Z"/><polygon class="cls-5" points="425.49 174.61 424.74 175.85 429.72 178.08 430.46 176.85 425.49 174.61"/><path class="cls-5" d="M432.05,176.71a1.93,1.93,0,0,0-2.4.56,1.44,1.44,0,0,0,.84,2,1.93,1.93,0,0,0,2.41-.56A1.43,1.43,0,0,0,432.05,176.71Z"/><polygon class="cls-5" points="426.56 174.98 424.96 174.75 424.03 179.51 425.63 179.74 426.56 174.98"/><path class="cls-5" d="M426.27,181a1.54,1.54,0,0,0-1.36-1.8,1.74,1.74,0,0,0-2,1.3,1.56,1.56,0,0,0,1.36,1.81A1.75,1.75,0,0,0,426.27,181Z"/><polygon class="cls-5" points="426.49 175.97 426.24 174.59 420.7 175.29 420.93 176.67 426.49 175.97"/><path class="cls-5" d="M419.74,177.59c1-.13,1.7-.88,1.56-1.67a1.75,1.75,0,0,0-2.06-1.2,1.58,1.58,0,0,0-1.56,1.66A1.77,1.77,0,0,0,419.74,177.59Z"/><polygon class="cls-5" points="425.36 176.21 426.82 175.59 424.33 171.26 422.88 171.89 425.36 176.21"/><path class="cls-5" d="M421.49,171.19a1.91,1.91,0,0,0,2.33.77,1.42,1.42,0,0,0,.69-2.06,1.88,1.88,0,0,0-2.32-.77A1.42,1.42,0,0,0,421.49,171.19Z"/><polygon class="cls-5" points="424.76 175.37 425.89 176.36 429.89 172.99 428.77 172 424.76 175.37"/><path class="cls-5" d="M429.11,170.65a1.36,1.36,0,0,0-.13,2.13,2,2,0,0,0,2.48-.06,1.37,1.37,0,0,0,.14-2.14A2,2,0,0,0,429.11,170.65Z"/><polygon class="cls-5" points="426.68 175.58 425.66 175.99 427.34 179.04 428.37 178.62 426.68 175.58"/><path class="cls-5" d="M429.32,179.12a1.31,1.31,0,0,0-1.61-.56,1,1,0,0,0-.51,1.44,1.32,1.32,0,0,0,1.61.56A1,1,0,0,0,429.32,179.12Z"/><polygon class="cls-5" points="425.79 175.9 425.01 175.19 422.16 177.51 422.94 178.22 425.79 175.9"/><path class="cls-5" d="M422.68,179.16a1,1,0,0,0,.12-1.5,1.37,1.37,0,0,0-1.74,0,1,1,0,0,0-.12,1.5A1.38,1.38,0,0,0,422.68,179.16Z"/><polygon class="cls-5" points="425.15 175.36 425.69 174.5 422.24 172.88 421.7 173.74 425.15 175.36"/><path class="cls-5" d="M420.59,173.82a1.34,1.34,0,0,0,1.69-.37,1,1,0,0,0-.56-1.41,1.36,1.36,0,0,0-1.7.36A1,1,0,0,0,420.59,173.82Z"/><polygon class="cls-5" points="425.57 174.6 426.68 174.78 427.4 171.46 426.28 171.28 425.57 174.6"/><path class="cls-5" d="M425.85,170.39a1.08,1.08,0,0,0,.93,1.27,1.21,1.21,0,0,0,1.39-.9,1.07,1.07,0,0,0-.92-1.27A1.24,1.24,0,0,0,425.85,170.39Z"/><polygon class="cls-5" points="426.56 174.74 426.7 175.71 430.6 175.27 430.45 174.31 426.56 174.74"/><path class="cls-5" d="M431.29,173.67c-.69.08-1.2.6-1.11,1.15a1.22,1.22,0,0,0,1.42.87c.71-.08,1.21-.6,1.12-1.15A1.26,1.26,0,0,0,431.29,173.67Z"/><g class="cls-13"><path class="cls-11" d="M1016.92,167.64c.2-.59.42-1.17.67-1.72a15.21,15.21,0,0,1,1.63-2.86,16.35,16.35,0,0,1,5.1-4.21,23.78,23.78,0,0,1,13.11-2.87,24.22,24.22,0,0,0-13.46,2.2,17.21,17.21,0,0,0-5.62,4.18,15.84,15.84,0,0,0-2,3c-.15.29-.3.6-.44.9-.66-2.81-1-9.5,5.3-13.53,9.15-5.83,20.7,3.51,20.7,3.51-1.45-.15-7,1.73-9.68,7.57s-7.08,6.13-10.44,5.6A19.3,19.3,0,0,1,1016.92,167.64Z"/><path class="cls-10" d="M989.44,175.46c-.86-.16-1.73-.35-2.58-.59a21.36,21.36,0,0,1-4.39-1.74,23.56,23.56,0,0,1-7.06-6.38,34.34,34.34,0,0,1-6.78-18.07,34.89,34.89,0,0,0,5.91,18.7,24.8,24.8,0,0,0,7.1,7.15,23.69,23.69,0,0,0,4.64,2.19c.45.16.91.31,1.37.44-3.87,1.53-13.31,3.4-20.35-4.75-10.19-11.83.73-30.19.73-30.19.09,2.11,3.9,9.62,12.77,12.23s10.19,8.8,10.13,13.7A27,27,0,0,1,989.44,175.46Z"/><path class="cls-12" d="M1033.82,176.8c-4.58,2.17-4.16,15-15.48,15.41s-15.72-15.16-15.72-15.16,4.15-15.63,15.47-15.42S1029.21,174.7,1033.82,176.8Z"/><path class="cls-12" d="M1002.36,145.85c2.18,4.58,15,4.16,15.43,15.48s-15.17,15.72-15.17,15.72S987,172.89,987.2,161.57,1000.26,150.46,1002.36,145.85Z"/><path class="cls-12" d="M971.43,177.31c4.56-2.19,4.15-15,15.46-15.42s15.73,15.16,15.73,15.16-4.16,15.63-15.47,15.42S976,179.41,971.43,177.31Z"/><path class="cls-12" d="M1002.87,208.25c-2.18-4.58-15-4.16-15.42-15.48s15.17-15.72,15.17-15.72,15.63,4.15,15.41,15.47S1005,203.64,1002.87,208.25Z"/><path class="cls-6" d="M1021.54,195.67c-4.06-1.44-11.54,6.54-18.58,0s-.34-18.59-.34-18.59,11.9-6.9,18.59,0S1020,191.64,1021.54,195.67Z"/><path class="cls-6" d="M1021.24,158.13c-1.44,4.06,6.53,11.54,0,18.58s-18.58.34-18.58.34-6.91-11.9,0-18.59S1017.2,159.63,1021.24,158.13Z"/><path class="cls-6" d="M983.69,158.43c4.06,1.44,11.55-6.54,18.59,0s.34,18.58.34,18.58S990.71,184,984,177,985.19,162.47,983.69,158.43Z"/><path class="cls-6" d="M984,196c1.44-4.06-6.54-11.54,0-18.59s18.59-.34,18.59-.34,6.91,11.91,0,18.59S988,194.47,984,196Z"/><path class="cls-5" d="M1002.76,195.2c-1.26-2.65-8.74-2.42-9-9s8.83-9.15,8.83-9.15,9.09,2.42,9,9S1004,192.52,1002.76,195.2Z"/><path class="cls-5" d="M1020.77,176.9c-2.66,1.27-2.42,8.74-9,9s-9.15-8.82-9.15-8.82,2.42-9.09,9-9S1018.09,175.68,1020.77,176.9Z"/><path class="cls-5" d="M1002.47,158.9c1.27,2.66,8.74,2.42,9,9s-8.82,9.15-8.82,9.15-9.1-2.42-9-9S1001.24,161.57,1002.47,158.9Z"/><path class="cls-5" d="M984.47,177.2c2.65-1.26,2.41-8.74,9-9s9.15,8.82,9.15,8.82-2.42,9.1-9,9S987.15,178.42,984.47,177.2Z"/><path class="cls-12" d="M1012.76,187c1.44-3.75-10.14-10-10.14-10S1009,188.53,1012.76,187Z"/><path class="cls-12" d="M1016.39,180.62c-.62-4-13.77-3.57-13.77-3.57S1013.93,183.79,1016.39,180.62Z"/><path class="cls-12" d="M1016.34,173.26c-2.53-3.12-13.72,3.79-13.72,3.79S1015.78,177.23,1016.34,173.26Z"/><path class="cls-12" d="M1012.6,166.91c-3.75-1.45-10,10.14-10,10.14S1014.1,170.63,1012.6,166.91Z"/><path class="cls-12" d="M1006.19,163.28c-4,.62-3.57,13.77-3.57,13.77S1009.35,165.75,1006.19,163.28Z"/><path class="cls-12" d="M998.83,163.34c-3.13,2.53,3.79,13.71,3.79,13.71S1002.8,163.9,998.83,163.34Z"/><path class="cls-12" d="M992.48,167.07c-1.44,3.75,10.14,10,10.14,10S996.2,165.57,992.48,167.07Z"/><path class="cls-12" d="M988.86,173.48c.61,4,13.76,3.57,13.76,3.57S991.32,170.32,988.86,173.48Z"/><path class="cls-12" d="M988.91,180.84c2.52,3.13,13.71-3.79,13.71-3.79S989.47,176.87,988.91,180.84Z"/><path class="cls-12" d="M992.64,187.2c3.75,1.43,10-10.15,10-10.15S991.14,183.47,992.64,187.2Z"/><path class="cls-12" d="M999.05,190.82c4-.62,3.57-13.77,3.57-13.77S995.88,188.35,999.05,190.82Z"/><path class="cls-12" d="M1006.42,190.76c3.12-2.52-3.8-13.71-3.8-13.71S1002.44,190.2,1006.42,190.76Z"/><path class="cls-14" d="M1004.21,259.65c-2.66-1.18-.53-33.37,5.43-40.45a52.29,52.29,0,0,1,15.26-12.63,13.68,13.68,0,0,0,5-4.22s-1.87-4.95-1.46-7.13c0,0-5-1.33-7.07-3.71,0,0-6.52,3.29-10.4,1.58s-2.28-3.74-2.28-3.74,5.88-1.83,7.94-2.69,3.34-.31,6.78-.11,10.12,1.94,11.36,4.85,3.14,6.84,3.53,6.28-1.78-8.31-1-11.05c0,0-7.4-3.29-8.63-6.2,0,0-9.63.48-12-1.76s-2.07-3.88,3.19-4.34,10.13-.09,11.85.67,8.93,3.82,10.64,4.73,2,4.58,2.67,6.93a28.27,28.27,0,0,1-.19-5.89,23.67,23.67,0,0,1-7.8-10.92s-7.17-5.67-7.52-9.95,1.48-3.35,5.57-.21,5.32,3.84,7.69,7.69,8.52,10.87,8.52,10.87-1.59-5.28-1.32-8.11c0,0-2.53-7.9-.85-10.4s3.63-2.81,4.39-.41,3.19,8.6,3.24,10.43c0,1.49.93,11.18,1.07,13.74s-2,6.64-3.44,10.27-3.61,5.92-3.81,9.51,0,6.94-9,15.17-15,12.46-19.57,17.41A146.37,146.37,0,0,0,1004.21,259.65Z"/><path class="cls-14" d="M1000.47,259.65c2.66-1.18.53-33.37-5.43-40.45a52.29,52.29,0,0,0-15.26-12.63,13.8,13.8,0,0,1-5-4.22s1.87-4.95,1.47-7.13c0,0,5-1.33,7.06-3.71,0,0,6.53,3.29,10.4,1.58s2.28-3.74,2.28-3.74-5.88-1.83-7.94-2.69-3.33-.31-6.78-.11-10.12,1.94-11.36,4.85-3.14,6.84-3.53,6.28,1.79-8.31,1-11.05c0,0,7.4-3.29,8.63-6.2,0,0,9.63.48,12-1.76s2.07-3.88-3.19-4.34-10.13-.09-11.85.67-8.93,3.82-10.63,4.73-2,4.58-2.68,6.93a28.27,28.27,0,0,0,.19-5.89,23.59,23.59,0,0,0,7.8-10.92s7.18-5.67,7.52-9.95-1.48-3.35-5.57-.21-5.32,3.84-7.68,7.69-8.53,10.87-8.53,10.87,1.59-5.28,1.32-8.11c0,0,2.53-7.9.85-10.4s-3.63-2.81-4.39-.41-3.19,8.6-3.24,10.43c0,1.49-.93,11.18-1.06,13.74s2,6.64,3.44,10.27,3.6,5.92,3.8,9.51,0,6.94,9,15.17,15,12.46,19.58,17.41A146.64,146.64,0,0,1,1000.47,259.65Z"/></g><image width="69" height="38" transform="translate(1079.61 255.85)" xlink:href="Group%204.png"/><text class="cls-15" transform="translate(40.87 92.32)">Show your Charm<tspan x="0" y="43.2">Shine your attitude</tspan></text><text class="cls-16" transform="translate(41.76 170.17)"> Shine  SME </text></svg>